<?xml version="1.0" encoding="UTF-8" standalone="no"?><svg xmlns="http://www.w3.org/2000/svg" xmlns:xlink="http://www.w3.org/1999/xlink" contentScriptType="application/ecmascript" contentStyleType="text/css" height="1136px" preserveAspectRatio="none" style="width:2768px;height:1136px;" version="1.1" viewBox="0 0 2768 1136" width="2768px" zoomAndPan="magnify"><defs><filter height="300%" id="f1gpafuaxb29pm" width="300%" x="-1" y="-1"><feGaussianBlur result="blurOut" stdDeviation="2.0"/><feColorMatrix in="blurOut" result="blurOut2" type="matrix" values="0 0 0 0 0 0 0 0 0 0 0 0 0 0 0 0 0 0 .4 0"/><feOffset dx="4.0" dy="4.0" in="blurOut2" result="blurOut3"/><feBlend in="SourceGraphic" in2="blurOut3" mode="normal"/></filter></defs><g><!--cluster Interface--><polygon fill="#FFFFFF" filter="url(#f1gpafuaxb29pm)" points="440,548,509,548,516,571.6094,693,571.6094,693,648,440,648,440,548" style="stroke: #000000; stroke-width: 1.5;"/><line style="stroke: #000000; stroke-width: 1.5;" x1="440" x2="516" y1="571.6094" y2="571.6094"/><text fill="#000000" font-family="sans-serif" font-size="14" font-weight="bold" lengthAdjust="spacingAndGlyphs" textLength="63" x="444" y="564.5332">Interface</text><!--cluster Abstruct--><polygon fill="#FFFFFF" filter="url(#f1gpafuaxb29pm)" points="1260,244,1325,244,1332,267.6094,1541,267.6094,1541,756,1260,756,1260,244" style="stroke: #000000; stroke-width: 1.5;"/><line style="stroke: #000000; stroke-width: 1.5;" x1="1260" x2="1332" y1="267.6094" y2="267.6094"/><text fill="#000000" font-family="sans-serif" font-size="14" font-weight="bold" lengthAdjust="spacingAndGlyphs" textLength="59" x="1264" y="260.5332">Abstruct</text><!--cluster Character--><polygon fill="#FFFFFF" filter="url(#f1gpafuaxb29pm)" points="754,780,829,780,836,803.6094,2093,803.6094,2093,1124,754,1124,754,780" style="stroke: #000000; stroke-width: 1.5;"/><line style="stroke: #000000; stroke-width: 1.5;" x1="754" x2="836" y1="803.6094" y2="803.6094"/><text fill="#000000" font-family="sans-serif" font-size="14" font-weight="bold" lengthAdjust="spacingAndGlyphs" textLength="69" x="758" y="796.5332">Character</text><!--cluster Scene--><polygon fill="#FFFFFF" filter="url(#f1gpafuaxb29pm)" points="22,784,72,784,79,807.6094,730,807.6094,730,884,22,884,22,784" style="stroke: #000000; stroke-width: 1.5;"/><line style="stroke: #000000; stroke-width: 1.5;" x1="22" x2="79" y1="807.6094" y2="807.6094"/><text fill="#000000" font-family="sans-serif" font-size="14" font-weight="bold" lengthAdjust="spacingAndGlyphs" textLength="44" x="26" y="800.5332">Scene</text><!--cluster Flag.h--><rect fill="#FFFFFF" filter="url(#f1gpafuaxb29pm)" height="100" style="stroke: #000000; stroke-width: 1.5;" width="264" x="1989" y="116"/><text fill="#000000" font-family="sans-serif" font-size="14" font-weight="bold" lengthAdjust="spacingAndGlyphs" textLength="43" x="2099.5" y="132.5332">Flag.h</text><!--cluster Enum.h--><rect fill="#FFFFFF" filter="url(#f1gpafuaxb29pm)" height="232" style="stroke: #000000; stroke-width: 1.5;" width="269" x="178" y="116"/><text fill="#000000" font-family="sans-serif" font-size="14" font-weight="bold" lengthAdjust="spacingAndGlyphs" textLength="52" x="286.5" y="132.5332">Enum.h</text><!--cluster Animation.h--><rect fill="#FFFFFF" filter="url(#f1gpafuaxb29pm)" height="108" style="stroke: #000000; stroke-width: 1.5;" width="269" x="2117" y="908"/><text fill="#000000" font-family="sans-serif" font-size="14" font-weight="bold" lengthAdjust="spacingAndGlyphs" textLength="82" x="2210.5" y="924.5332">Animation.h</text><!--cluster Static--><polygon fill="#FFFFFF" filter="url(#f1gpafuaxb29pm)" points="783,24,828,24,835,47.6094,1078,47.6094,1078,400,783,400,783,24" style="stroke: #000000; stroke-width: 1.5;"/><line style="stroke: #000000; stroke-width: 1.5;" x1="783" x2="835" y1="47.6094" y2="47.6094"/><text fill="#000000" font-family="sans-serif" font-size="14" font-weight="bold" lengthAdjust="spacingAndGlyphs" textLength="39" x="787" y="40.5332">Static</text><!--cluster Math.h--><rect fill="#FFFFFF" filter="url(#f1gpafuaxb29pm)" height="308" style="stroke: #000000; stroke-width: 1.5;" width="247" x="807" y="68"/><text fill="#000000" font-family="sans-serif" font-size="14" font-weight="bold" lengthAdjust="spacingAndGlyphs" textLength="48" x="906.5" y="84.5332">Math.h</text><!--cluster OriginalMeth--><rect fill="#FFFFFF" filter="url(#f1gpafuaxb29pm)" height="240" style="stroke: #000000; stroke-width: 1.5;" width="199" x="831" y="112"/><path d="M932,113 L932,122.6094 L922,132.6094 L831,132.6094 " fill="none" style="stroke: #000000; stroke-width: 1.5;"/><text fill="#000000" font-family="sans-serif" font-size="14" font-weight="bold" lengthAdjust="spacingAndGlyphs" textLength="91" x="834" y="127.5332">OriginalMeth</text><!--cluster Manager--><polygon fill="#FFFFFF" filter="url(#f1gpafuaxb29pm)" points="2075,424,2143,424,2150,447.6094,2463,447.6094,2463,524,2075,524,2075,424" style="stroke: #000000; stroke-width: 1.5;"/><line style="stroke: #000000; stroke-width: 1.5;" x1="2075" x2="2150" y1="447.6094" y2="447.6094"/><text fill="#000000" font-family="sans-serif" font-size="14" font-weight="bold" lengthAdjust="spacingAndGlyphs" textLength="62" x="2079" y="440.5332">Manager</text><!--cluster Data--><polygon fill="#FFFFFF" filter="url(#f1gpafuaxb29pm)" points="2487,424,2524,424,2531,447.6094,2746,447.6094,2746,524,2487,524,2487,424" style="stroke: #000000; stroke-width: 1.5;"/><line style="stroke: #000000; stroke-width: 1.5;" x1="2487" x2="2531" y1="447.6094" y2="447.6094"/><text fill="#000000" font-family="sans-serif" font-size="14" font-weight="bold" lengthAdjust="spacingAndGlyphs" textLength="31" x="2491" y="440.5332">Data</text><!--cluster Vertex.h--><rect fill="#FFFFFF" filter="url(#f1gpafuaxb29pm)" height="108" style="stroke: #000000; stroke-width: 1.5;" width="215" x="1258" y="112"/><text fill="#000000" font-family="sans-serif" font-size="14" font-weight="bold" lengthAdjust="spacingAndGlyphs" textLength="59" x="1336" y="128.5332">Vertex.h</text><!--class IGameScene--><rect fill="#FEFECE" filter="url(#f1gpafuaxb29pm)" height="48" id="IGameScene" style="stroke: #A80036; stroke-width: 1.5;" width="104" x="456" y="584"/><ellipse cx="471" cy="600" fill="#ADD1B2" rx="11" ry="11" style="stroke: #A80036; stroke-width: 1.0;"/><path d="M473.7031,605.4375 Q472.7813,606.3594 470.5156,606.3594 Q469.25,606.3594 468.3281,605.4375 Q466.6719,603.7813 466.6719,600.25 Q466.6719,596.1406 468.4531,594.3438 Q469.3906,593.4219 470.5781,593.4219 Q472.8438,593.4219 473.5781,594.1406 Q474.9688,595.5469 474.9063,597.9375 L472.4375,597.9375 Q472.375,595.8125 471.6406,595.0781 Q471.25,594.6719 470.5781,594.6719 Q470.5781,594.6719 470.5156,595.1406 Q469.1875,596.4688 469.1875,600.125 Q469.1875,603.3125 470.3281,604.4375 Q470.8594,604.9688 470.8594,604.9688 Q471.1094,604.9688 471.6406,604.4375 Q472.3125,603.7813 472.375,601.3906 L474.9688,601.3906 Q474.7656,604.375 473.7031,605.4375 Z "/><text fill="#000000" font-family="sans-serif" font-size="12" lengthAdjust="spacingAndGlyphs" textLength="72" x="485" y="604.9102">IGameScene</text><line style="stroke: #A80036; stroke-width: 1.5;" x1="457" x2="559" y1="616" y2="616"/><line style="stroke: #A80036; stroke-width: 1.5;" x1="457" x2="559" y1="624" y2="624"/><!--class IMoveObj--><rect fill="#FEFECE" filter="url(#f1gpafuaxb29pm)" height="48" id="IMoveObj" style="stroke: #A80036; stroke-width: 1.5;" width="82" x="595" y="584"/><ellipse cx="610" cy="600" fill="#ADD1B2" rx="11" ry="11" style="stroke: #A80036; stroke-width: 1.0;"/><path d="M612.7031,605.4375 Q611.7813,606.3594 609.5156,606.3594 Q608.25,606.3594 607.3281,605.4375 Q605.6719,603.7813 605.6719,600.25 Q605.6719,596.1406 607.4531,594.3438 Q608.3906,593.4219 609.5781,593.4219 Q611.8438,593.4219 612.5781,594.1406 Q613.9688,595.5469 613.9063,597.9375 L611.4375,597.9375 Q611.375,595.8125 610.6406,595.0781 Q610.25,594.6719 609.5781,594.6719 Q609.5781,594.6719 609.5156,595.1406 Q608.1875,596.4688 608.1875,600.125 Q608.1875,603.3125 609.3281,604.4375 Q609.8594,604.9688 609.8594,604.9688 Q610.1094,604.9688 610.6406,604.4375 Q611.3125,603.7813 611.375,601.3906 L613.9688,601.3906 Q613.7656,604.375 612.7031,605.4375 Z "/><text fill="#000000" font-family="sans-serif" font-size="12" lengthAdjust="spacingAndGlyphs" textLength="50" x="624" y="604.9102">IMoveObj</text><line style="stroke: #A80036; stroke-width: 1.5;" x1="596" x2="676" y1="616" y2="616"/><line style="stroke: #A80036; stroke-width: 1.5;" x1="596" x2="676" y1="624" y2="624"/><!--class Enemy--><rect fill="#FEFECE" filter="url(#f1gpafuaxb29pm)" height="48" id="Enemy" style="stroke: #A80036; stroke-width: 1.5;" width="70" x="1276" y="692"/><ellipse cx="1291" cy="708" fill="#ADD1B2" rx="11" ry="11" style="stroke: #A80036; stroke-width: 1.0;"/><path d="M1293.7031,713.4375 Q1292.7813,714.3594 1290.5156,714.3594 Q1289.25,714.3594 1288.3281,713.4375 Q1286.6719,711.7813 1286.6719,708.25 Q1286.6719,704.1406 1288.4531,702.3438 Q1289.3906,701.4219 1290.5781,701.4219 Q1292.8438,701.4219 1293.5781,702.1406 Q1294.9688,703.5469 1294.9063,705.9375 L1292.4375,705.9375 Q1292.375,703.8125 1291.6406,703.0781 Q1291.25,702.6719 1290.5781,702.6719 Q1290.5781,702.6719 1290.5156,703.1406 Q1289.1875,704.4688 1289.1875,708.125 Q1289.1875,711.3125 1290.3281,712.4375 Q1290.8594,712.9688 1290.8594,712.9688 Q1291.1094,712.9688 1291.6406,712.4375 Q1292.3125,711.7813 1292.375,709.3906 L1294.9688,709.3906 Q1294.7656,712.375 1293.7031,713.4375 Z "/><text fill="#000000" font-family="sans-serif" font-size="12" lengthAdjust="spacingAndGlyphs" textLength="38" x="1305" y="712.9102">Enemy</text><line style="stroke: #A80036; stroke-width: 1.5;" x1="1277" x2="1345" y1="724" y2="724"/><line style="stroke: #A80036; stroke-width: 1.5;" x1="1277" x2="1345" y1="732" y2="732"/><!--class RenderObj--><rect fill="#FEFECE" filter="url(#f1gpafuaxb29pm)" height="48" id="RenderObj" style="stroke: #A80036; stroke-width: 1.5;" width="92" x="1433" y="460"/><ellipse cx="1448" cy="476" fill="#ADD1B2" rx="11" ry="11" style="stroke: #A80036; stroke-width: 1.0;"/><path d="M1450.7031,481.4375 Q1449.7813,482.3594 1447.5156,482.3594 Q1446.25,482.3594 1445.3281,481.4375 Q1443.6719,479.7813 1443.6719,476.25 Q1443.6719,472.1406 1445.4531,470.3438 Q1446.3906,469.4219 1447.5781,469.4219 Q1449.8438,469.4219 1450.5781,470.1406 Q1451.9688,471.5469 1451.9063,473.9375 L1449.4375,473.9375 Q1449.375,471.8125 1448.6406,471.0781 Q1448.25,470.6719 1447.5781,470.6719 Q1447.5781,470.6719 1447.5156,471.1406 Q1446.1875,472.4688 1446.1875,476.125 Q1446.1875,479.3125 1447.3281,480.4375 Q1447.8594,480.9688 1447.8594,480.9688 Q1448.1094,480.9688 1448.6406,480.4375 Q1449.3125,479.7813 1449.375,477.3906 L1451.9688,477.3906 Q1451.7656,480.375 1450.7031,481.4375 Z "/><text fill="#000000" font-family="sans-serif" font-size="12" lengthAdjust="spacingAndGlyphs" textLength="60" x="1462" y="480.9102">RenderObj</text><line style="stroke: #A80036; stroke-width: 1.5;" x1="1434" x2="1524" y1="492" y2="492"/><line style="stroke: #A80036; stroke-width: 1.5;" x1="1434" x2="1524" y1="500" y2="500"/><!--class NotPlayer--><rect fill="#FEFECE" filter="url(#f1gpafuaxb29pm)" height="48" id="NotPlayer" style="stroke: #A80036; stroke-width: 1.5;" width="85" x="1276.5" y="460"/><ellipse cx="1291.5" cy="476" fill="#ADD1B2" rx="11" ry="11" style="stroke: #A80036; stroke-width: 1.0;"/><path d="M1294.2031,481.4375 Q1293.2813,482.3594 1291.0156,482.3594 Q1289.75,482.3594 1288.8281,481.4375 Q1287.1719,479.7813 1287.1719,476.25 Q1287.1719,472.1406 1288.9531,470.3438 Q1289.8906,469.4219 1291.0781,469.4219 Q1293.3438,469.4219 1294.0781,470.1406 Q1295.4688,471.5469 1295.4063,473.9375 L1292.9375,473.9375 Q1292.875,471.8125 1292.1406,471.0781 Q1291.75,470.6719 1291.0781,470.6719 Q1291.0781,470.6719 1291.0156,471.1406 Q1289.6875,472.4688 1289.6875,476.125 Q1289.6875,479.3125 1290.8281,480.4375 Q1291.3594,480.9688 1291.3594,480.9688 Q1291.6094,480.9688 1292.1406,480.4375 Q1292.8125,479.7813 1292.875,477.3906 L1295.4688,477.3906 Q1295.2656,480.375 1294.2031,481.4375 Z "/><text fill="#000000" font-family="sans-serif" font-size="12" lengthAdjust="spacingAndGlyphs" textLength="53" x="1305.5" y="480.9102">NotPlayer</text><line style="stroke: #A80036; stroke-width: 1.5;" x1="1277.5" x2="1360.5" y1="492" y2="492"/><line style="stroke: #A80036; stroke-width: 1.5;" x1="1277.5" x2="1360.5" y1="500" y2="500"/><!--class Square--><rect fill="#FEFECE" filter="url(#f1gpafuaxb29pm)" height="48" id="Square" style="stroke: #A80036; stroke-width: 1.5;" width="72" x="1276" y="284"/><ellipse cx="1291" cy="300" fill="#ADD1B2" rx="11" ry="11" style="stroke: #A80036; stroke-width: 1.0;"/><path d="M1293.7031,305.4375 Q1292.7813,306.3594 1290.5156,306.3594 Q1289.25,306.3594 1288.3281,305.4375 Q1286.6719,303.7813 1286.6719,300.25 Q1286.6719,296.1406 1288.4531,294.3438 Q1289.3906,293.4219 1290.5781,293.4219 Q1292.8438,293.4219 1293.5781,294.1406 Q1294.9688,295.5469 1294.9063,297.9375 L1292.4375,297.9375 Q1292.375,295.8125 1291.6406,295.0781 Q1291.25,294.6719 1290.5781,294.6719 Q1290.5781,294.6719 1290.5156,295.1406 Q1289.1875,296.4688 1289.1875,300.125 Q1289.1875,303.3125 1290.3281,304.4375 Q1290.8594,304.9688 1290.8594,304.9688 Q1291.1094,304.9688 1291.6406,304.4375 Q1292.3125,303.7813 1292.375,301.3906 L1294.9688,301.3906 Q1294.7656,304.375 1293.7031,305.4375 Z "/><text fill="#000000" font-family="sans-serif" font-size="12" lengthAdjust="spacingAndGlyphs" textLength="40" x="1305" y="304.9102">Square</text><line style="stroke: #A80036; stroke-width: 1.5;" x1="1277" x2="1347" y1="316" y2="316"/><line style="stroke: #A80036; stroke-width: 1.5;" x1="1277" x2="1347" y1="324" y2="324"/><!--class Singleton--><rect fill="#FEFECE" filter="url(#f1gpafuaxb29pm)" height="56.1875" id="Singleton" style="stroke: #A80036; stroke-width: 1.5;" width="142" x="1383" y="280"/><ellipse cx="1398" cy="300.0938" fill="#DA70D6" rx="11" ry="11" style="stroke: #A80036; stroke-width: 1.0;"/><path d="M1396.3906,306.9531 L1396.3906,301.1094 L1396.3906,295.2656 L1393.7969,295.2656 L1393.7969,294.0156 L1401.6406,294.0156 L1401.6406,295.2656 L1398.9219,295.2656 L1398.9219,306.9531 L1396.3906,306.9531 Z "/><text fill="#000000" font-family="sans-serif" font-size="12" font-style="italic" lengthAdjust="spacingAndGlyphs" textLength="114" x="1410" y="297.457">«template&lt;class T&gt;»</text><text fill="#000000" font-family="sans-serif" font-size="12" lengthAdjust="spacingAndGlyphs" textLength="52" x="1441" y="312.5508">Singleton</text><line style="stroke: #A80036; stroke-width: 1.5;" x1="1384" x2="1524" y1="320.1875" y2="320.1875"/><line style="stroke: #A80036; stroke-width: 1.5;" x1="1384" x2="1524" y1="328.1875" y2="328.1875"/><!--class BackGround--><rect fill="#FEFECE" filter="url(#f1gpafuaxb29pm)" height="48" id="BackGround" style="stroke: #A80036; stroke-width: 1.5;" width="100" x="1139" y="820"/><ellipse cx="1154" cy="836" fill="#ADD1B2" rx="11" ry="11" style="stroke: #A80036; stroke-width: 1.0;"/><path d="M1156.7031,841.4375 Q1155.7813,842.3594 1153.5156,842.3594 Q1152.25,842.3594 1151.3281,841.4375 Q1149.6719,839.7813 1149.6719,836.25 Q1149.6719,832.1406 1151.4531,830.3438 Q1152.3906,829.4219 1153.5781,829.4219 Q1155.8438,829.4219 1156.5781,830.1406 Q1157.9688,831.5469 1157.9063,833.9375 L1155.4375,833.9375 Q1155.375,831.8125 1154.6406,831.0781 Q1154.25,830.6719 1153.5781,830.6719 Q1153.5781,830.6719 1153.5156,831.1406 Q1152.1875,832.4688 1152.1875,836.125 Q1152.1875,839.3125 1153.3281,840.4375 Q1153.8594,840.9688 1153.8594,840.9688 Q1154.1094,840.9688 1154.6406,840.4375 Q1155.3125,839.7813 1155.375,837.3906 L1157.9688,837.3906 Q1157.7656,840.375 1156.7031,841.4375 Z "/><text fill="#000000" font-family="sans-serif" font-size="12" lengthAdjust="spacingAndGlyphs" textLength="68" x="1168" y="840.9102">BackGround</text><line style="stroke: #A80036; stroke-width: 1.5;" x1="1140" x2="1238" y1="852" y2="852"/><line style="stroke: #A80036; stroke-width: 1.5;" x1="1140" x2="1238" y1="860" y2="860"/><!--class Block--><rect fill="#FEFECE" filter="url(#f1gpafuaxb29pm)" height="48" id="Block" style="stroke: #A80036; stroke-width: 1.5;" width="62" x="1425" y="820"/><ellipse cx="1440" cy="836" fill="#ADD1B2" rx="11" ry="11" style="stroke: #A80036; stroke-width: 1.0;"/><path d="M1442.7031,841.4375 Q1441.7813,842.3594 1439.5156,842.3594 Q1438.25,842.3594 1437.3281,841.4375 Q1435.6719,839.7813 1435.6719,836.25 Q1435.6719,832.1406 1437.4531,830.3438 Q1438.3906,829.4219 1439.5781,829.4219 Q1441.8438,829.4219 1442.5781,830.1406 Q1443.9688,831.5469 1443.9063,833.9375 L1441.4375,833.9375 Q1441.375,831.8125 1440.6406,831.0781 Q1440.25,830.6719 1439.5781,830.6719 Q1439.5781,830.6719 1439.5156,831.1406 Q1438.1875,832.4688 1438.1875,836.125 Q1438.1875,839.3125 1439.3281,840.4375 Q1439.8594,840.9688 1439.8594,840.9688 Q1440.1094,840.9688 1440.6406,840.4375 Q1441.3125,839.7813 1441.375,837.3906 L1443.9688,837.3906 Q1443.7656,840.375 1442.7031,841.4375 Z "/><text fill="#000000" font-family="sans-serif" font-size="12" lengthAdjust="spacingAndGlyphs" textLength="30" x="1454" y="840.9102">Block</text><line style="stroke: #A80036; stroke-width: 1.5;" x1="1426" x2="1486" y1="852" y2="852"/><line style="stroke: #A80036; stroke-width: 1.5;" x1="1426" x2="1486" y1="860" y2="860"/><!--class Characters--><rect fill="#FEFECE" filter="url(#f1gpafuaxb29pm)" height="56.1875" id="Characters" style="stroke: #A80036; stroke-width: 1.5;" width="142" x="1522" y="816"/><ellipse cx="1537" cy="836.0938" fill="#DA70D6" rx="11" ry="11" style="stroke: #A80036; stroke-width: 1.0;"/><path d="M1535.3906,842.9531 L1535.3906,837.1094 L1535.3906,831.2656 L1532.7969,831.2656 L1532.7969,830.0156 L1540.6406,830.0156 L1540.6406,831.2656 L1537.9219,831.2656 L1537.9219,842.9531 L1535.3906,842.9531 Z "/><text fill="#000000" font-family="sans-serif" font-size="12" font-style="italic" lengthAdjust="spacingAndGlyphs" textLength="114" x="1549" y="833.457">«template&lt;class T&gt;»</text><text fill="#000000" font-family="sans-serif" font-size="12" lengthAdjust="spacingAndGlyphs" textLength="61" x="1575.5" y="848.5508">Characters</text><line style="stroke: #A80036; stroke-width: 1.5;" x1="1523" x2="1663" y1="856.1875" y2="856.1875"/><line style="stroke: #A80036; stroke-width: 1.5;" x1="1523" x2="1663" y1="864.1875" y2="864.1875"/><!--class ClayPine--><rect fill="#FEFECE" filter="url(#f1gpafuaxb29pm)" height="48" id="ClayPine" style="stroke: #A80036; stroke-width: 1.5;" width="81" x="1415.5" y="1060"/><ellipse cx="1430.5" cy="1076" fill="#ADD1B2" rx="11" ry="11" style="stroke: #A80036; stroke-width: 1.0;"/><path d="M1433.2031,1081.4375 Q1432.2813,1082.3594 1430.0156,1082.3594 Q1428.75,1082.3594 1427.8281,1081.4375 Q1426.1719,1079.7813 1426.1719,1076.25 Q1426.1719,1072.1406 1427.9531,1070.3438 Q1428.8906,1069.4219 1430.0781,1069.4219 Q1432.3438,1069.4219 1433.0781,1070.1406 Q1434.4688,1071.5469 1434.4063,1073.9375 L1431.9375,1073.9375 Q1431.875,1071.8125 1431.1406,1071.0781 Q1430.75,1070.6719 1430.0781,1070.6719 Q1430.0781,1070.6719 1430.0156,1071.1406 Q1428.6875,1072.4688 1428.6875,1076.125 Q1428.6875,1079.3125 1429.8281,1080.4375 Q1430.3594,1080.9688 1430.3594,1080.9688 Q1430.6094,1080.9688 1431.1406,1080.4375 Q1431.8125,1079.7813 1431.875,1077.3906 L1434.4688,1077.3906 Q1434.2656,1080.375 1433.2031,1081.4375 Z "/><text fill="#000000" font-family="sans-serif" font-size="12" lengthAdjust="spacingAndGlyphs" textLength="49" x="1444.5" y="1080.9102">ClayPine</text><line style="stroke: #A80036; stroke-width: 1.5;" x1="1416.5" x2="1495.5" y1="1092" y2="1092"/><line style="stroke: #A80036; stroke-width: 1.5;" x1="1416.5" x2="1495.5" y1="1100" y2="1100"/><!--class Goal--><rect fill="#FEFECE" filter="url(#f1gpafuaxb29pm)" height="48" id="Goal" style="stroke: #A80036; stroke-width: 1.5;" width="58" x="1699" y="820"/><ellipse cx="1714" cy="836" fill="#ADD1B2" rx="11" ry="11" style="stroke: #A80036; stroke-width: 1.0;"/><path d="M1716.7031,841.4375 Q1715.7813,842.3594 1713.5156,842.3594 Q1712.25,842.3594 1711.3281,841.4375 Q1709.6719,839.7813 1709.6719,836.25 Q1709.6719,832.1406 1711.4531,830.3438 Q1712.3906,829.4219 1713.5781,829.4219 Q1715.8438,829.4219 1716.5781,830.1406 Q1717.9688,831.5469 1717.9063,833.9375 L1715.4375,833.9375 Q1715.375,831.8125 1714.6406,831.0781 Q1714.25,830.6719 1713.5781,830.6719 Q1713.5781,830.6719 1713.5156,831.1406 Q1712.1875,832.4688 1712.1875,836.125 Q1712.1875,839.3125 1713.3281,840.4375 Q1713.8594,840.9688 1713.8594,840.9688 Q1714.1094,840.9688 1714.6406,840.4375 Q1715.3125,839.7813 1715.375,837.3906 L1717.9688,837.3906 Q1717.7656,840.375 1716.7031,841.4375 Z "/><text fill="#000000" font-family="sans-serif" font-size="12" lengthAdjust="spacingAndGlyphs" textLength="26" x="1728" y="840.9102">Goal</text><line style="stroke: #A80036; stroke-width: 1.5;" x1="1700" x2="1756" y1="852" y2="852"/><line style="stroke: #A80036; stroke-width: 1.5;" x1="1700" x2="1756" y1="860" y2="860"/><!--class Image--><rect fill="#FEFECE" filter="url(#f1gpafuaxb29pm)" height="48" id="Image" style="stroke: #A80036; stroke-width: 1.5;" width="67" x="1893.5" y="820"/><ellipse cx="1908.5" cy="836" fill="#ADD1B2" rx="11" ry="11" style="stroke: #A80036; stroke-width: 1.0;"/><path d="M1911.2031,841.4375 Q1910.2813,842.3594 1908.0156,842.3594 Q1906.75,842.3594 1905.8281,841.4375 Q1904.1719,839.7813 1904.1719,836.25 Q1904.1719,832.1406 1905.9531,830.3438 Q1906.8906,829.4219 1908.0781,829.4219 Q1910.3438,829.4219 1911.0781,830.1406 Q1912.4688,831.5469 1912.4063,833.9375 L1909.9375,833.9375 Q1909.875,831.8125 1909.1406,831.0781 Q1908.75,830.6719 1908.0781,830.6719 Q1908.0781,830.6719 1908.0156,831.1406 Q1906.6875,832.4688 1906.6875,836.125 Q1906.6875,839.3125 1907.8281,840.4375 Q1908.3594,840.9688 1908.3594,840.9688 Q1908.6094,840.9688 1909.1406,840.4375 Q1909.8125,839.7813 1909.875,837.3906 L1912.4688,837.3906 Q1912.2656,840.375 1911.2031,841.4375 Z "/><text fill="#000000" font-family="sans-serif" font-size="12" lengthAdjust="spacingAndGlyphs" textLength="35" x="1922.5" y="840.9102">Image</text><line style="stroke: #A80036; stroke-width: 1.5;" x1="1894.5" x2="1959.5" y1="852" y2="852"/><line style="stroke: #A80036; stroke-width: 1.5;" x1="1894.5" x2="1959.5" y1="860" y2="860"/><!--class Kuribo--><rect fill="#FEFECE" filter="url(#f1gpafuaxb29pm)" height="48" id="Kuribo" style="stroke: #A80036; stroke-width: 1.5;" width="68" x="913" y="820"/><ellipse cx="928" cy="836" fill="#ADD1B2" rx="11" ry="11" style="stroke: #A80036; stroke-width: 1.0;"/><path d="M930.7031,841.4375 Q929.7813,842.3594 927.5156,842.3594 Q926.25,842.3594 925.3281,841.4375 Q923.6719,839.7813 923.6719,836.25 Q923.6719,832.1406 925.4531,830.3438 Q926.3906,829.4219 927.5781,829.4219 Q929.8438,829.4219 930.5781,830.1406 Q931.9688,831.5469 931.9063,833.9375 L929.4375,833.9375 Q929.375,831.8125 928.6406,831.0781 Q928.25,830.6719 927.5781,830.6719 Q927.5781,830.6719 927.5156,831.1406 Q926.1875,832.4688 926.1875,836.125 Q926.1875,839.3125 927.3281,840.4375 Q927.8594,840.9688 927.8594,840.9688 Q928.1094,840.9688 928.6406,840.4375 Q929.3125,839.7813 929.375,837.3906 L931.9688,837.3906 Q931.7656,840.375 930.7031,841.4375 Z "/><text fill="#000000" font-family="sans-serif" font-size="12" lengthAdjust="spacingAndGlyphs" textLength="36" x="942" y="840.9102">Kuribo</text><line style="stroke: #A80036; stroke-width: 1.5;" x1="914" x2="980" y1="852" y2="852"/><line style="stroke: #A80036; stroke-width: 1.5;" x1="914" x2="980" y1="860" y2="860"/><!--class NokonokoState--><rect fill="#FEFECE" filter="url(#f1gpafuaxb29pm)" height="48" id="NokonokoState" style="stroke: #A80036; stroke-width: 1.5;" width="116" x="1274" y="820"/><ellipse cx="1289" cy="836" fill="#EB937F" rx="11" ry="11" style="stroke: #A80036; stroke-width: 1.0;"/><path d="M1287.5313,834.8594 L1292.0469,834.8594 L1292.0469,836.125 L1287.5313,836.125 L1287.5313,841.1094 L1292.7656,841.1094 L1292.7656,842.3594 L1285,842.3594 L1285,829.4219 L1292.4375,829.4219 L1292.4375,830.6719 L1287.5313,830.6719 L1287.5313,834.8594 Z "/><text fill="#000000" font-family="sans-serif" font-size="12" lengthAdjust="spacingAndGlyphs" textLength="84" x="1303" y="840.9102">NokonokoState</text><line style="stroke: #A80036; stroke-width: 1.5;" x1="1275" x2="1389" y1="852" y2="852"/><line style="stroke: #A80036; stroke-width: 1.5;" x1="1275" x2="1389" y1="860" y2="860"/><!--class Nokonoko--><rect fill="#FEFECE" filter="url(#f1gpafuaxb29pm)" height="48" id="Nokonoko" style="stroke: #A80036; stroke-width: 1.5;" width="88" x="1016" y="820"/><ellipse cx="1031" cy="836" fill="#ADD1B2" rx="11" ry="11" style="stroke: #A80036; stroke-width: 1.0;"/><path d="M1033.7031,841.4375 Q1032.7813,842.3594 1030.5156,842.3594 Q1029.25,842.3594 1028.3281,841.4375 Q1026.6719,839.7813 1026.6719,836.25 Q1026.6719,832.1406 1028.4531,830.3438 Q1029.3906,829.4219 1030.5781,829.4219 Q1032.8438,829.4219 1033.5781,830.1406 Q1034.9688,831.5469 1034.9063,833.9375 L1032.4375,833.9375 Q1032.375,831.8125 1031.6406,831.0781 Q1031.25,830.6719 1030.5781,830.6719 Q1030.5781,830.6719 1030.5156,831.1406 Q1029.1875,832.4688 1029.1875,836.125 Q1029.1875,839.3125 1030.3281,840.4375 Q1030.8594,840.9688 1030.8594,840.9688 Q1031.1094,840.9688 1031.6406,840.4375 Q1032.3125,839.7813 1032.375,837.3906 L1034.9688,837.3906 Q1034.7656,840.375 1033.7031,841.4375 Z "/><text fill="#000000" font-family="sans-serif" font-size="12" lengthAdjust="spacingAndGlyphs" textLength="56" x="1045" y="840.9102">Nokonoko</text><line style="stroke: #A80036; stroke-width: 1.5;" x1="1017" x2="1103" y1="852" y2="852"/><line style="stroke: #A80036; stroke-width: 1.5;" x1="1017" x2="1103" y1="860" y2="860"/><!--class Player--><rect fill="#FEFECE" filter="url(#f1gpafuaxb29pm)" height="48" id="Player" style="stroke: #A80036; stroke-width: 1.5;" width="66" x="1792" y="820"/><ellipse cx="1807" cy="836" fill="#ADD1B2" rx="11" ry="11" style="stroke: #A80036; stroke-width: 1.0;"/><path d="M1809.7031,841.4375 Q1808.7813,842.3594 1806.5156,842.3594 Q1805.25,842.3594 1804.3281,841.4375 Q1802.6719,839.7813 1802.6719,836.25 Q1802.6719,832.1406 1804.4531,830.3438 Q1805.3906,829.4219 1806.5781,829.4219 Q1808.8438,829.4219 1809.5781,830.1406 Q1810.9688,831.5469 1810.9063,833.9375 L1808.4375,833.9375 Q1808.375,831.8125 1807.6406,831.0781 Q1807.25,830.6719 1806.5781,830.6719 Q1806.5781,830.6719 1806.5156,831.1406 Q1805.1875,832.4688 1805.1875,836.125 Q1805.1875,839.3125 1806.3281,840.4375 Q1806.8594,840.9688 1806.8594,840.9688 Q1807.1094,840.9688 1807.6406,840.4375 Q1808.3125,839.7813 1808.375,837.3906 L1810.9688,837.3906 Q1810.7656,840.375 1809.7031,841.4375 Z "/><text fill="#000000" font-family="sans-serif" font-size="12" lengthAdjust="spacingAndGlyphs" textLength="34" x="1821" y="840.9102">Player</text><line style="stroke: #A80036; stroke-width: 1.5;" x1="1793" x2="1857" y1="852" y2="852"/><line style="stroke: #A80036; stroke-width: 1.5;" x1="1793" x2="1857" y1="860" y2="860"/><!--class TextChar--><rect fill="#FEFECE" filter="url(#f1gpafuaxb29pm)" height="48" id="TextChar" style="stroke: #A80036; stroke-width: 1.5;" width="81" x="1995.5" y="820"/><ellipse cx="2010.5" cy="836" fill="#ADD1B2" rx="11" ry="11" style="stroke: #A80036; stroke-width: 1.0;"/><path d="M2013.2031,841.4375 Q2012.2813,842.3594 2010.0156,842.3594 Q2008.75,842.3594 2007.8281,841.4375 Q2006.1719,839.7813 2006.1719,836.25 Q2006.1719,832.1406 2007.9531,830.3438 Q2008.8906,829.4219 2010.0781,829.4219 Q2012.3438,829.4219 2013.0781,830.1406 Q2014.4688,831.5469 2014.4063,833.9375 L2011.9375,833.9375 Q2011.875,831.8125 2011.1406,831.0781 Q2010.75,830.6719 2010.0781,830.6719 Q2010.0781,830.6719 2010.0156,831.1406 Q2008.6875,832.4688 2008.6875,836.125 Q2008.6875,839.3125 2009.8281,840.4375 Q2010.3594,840.9688 2010.3594,840.9688 Q2010.6094,840.9688 2011.1406,840.4375 Q2011.8125,839.7813 2011.875,837.3906 L2014.4688,837.3906 Q2014.2656,840.375 2013.2031,841.4375 Z "/><text fill="#000000" font-family="sans-serif" font-size="12" lengthAdjust="spacingAndGlyphs" textLength="49" x="2024.5" y="840.9102">TextChar</text><line style="stroke: #A80036; stroke-width: 1.5;" x1="1996.5" x2="2075.5" y1="852" y2="852"/><line style="stroke: #A80036; stroke-width: 1.5;" x1="1996.5" x2="2075.5" y1="860" y2="860"/><!--class TextCharcters--><rect fill="#FEFECE" filter="url(#f1gpafuaxb29pm)" height="48" id="TextCharcters" style="stroke: #A80036; stroke-width: 1.5;" width="108" x="770" y="820"/><ellipse cx="785" cy="836" fill="#ADD1B2" rx="11" ry="11" style="stroke: #A80036; stroke-width: 1.0;"/><path d="M787.7031,841.4375 Q786.7813,842.3594 784.5156,842.3594 Q783.25,842.3594 782.3281,841.4375 Q780.6719,839.7813 780.6719,836.25 Q780.6719,832.1406 782.4531,830.3438 Q783.3906,829.4219 784.5781,829.4219 Q786.8438,829.4219 787.5781,830.1406 Q788.9688,831.5469 788.9063,833.9375 L786.4375,833.9375 Q786.375,831.8125 785.6406,831.0781 Q785.25,830.6719 784.5781,830.6719 Q784.5781,830.6719 784.5156,831.1406 Q783.1875,832.4688 783.1875,836.125 Q783.1875,839.3125 784.3281,840.4375 Q784.8594,840.9688 784.8594,840.9688 Q785.1094,840.9688 785.6406,840.4375 Q786.3125,839.7813 786.375,837.3906 L788.9688,837.3906 Q788.7656,840.375 787.7031,841.4375 Z "/><text fill="#000000" font-family="sans-serif" font-size="12" lengthAdjust="spacingAndGlyphs" textLength="76" x="799" y="840.9102">TextCharcters</text><line style="stroke: #A80036; stroke-width: 1.5;" x1="771" x2="877" y1="852" y2="852"/><line style="stroke: #A80036; stroke-width: 1.5;" x1="771" x2="877" y1="860" y2="860"/><!--class GameOverScene--><rect fill="#FEFECE" filter="url(#f1gpafuaxb29pm)" height="48" id="GameOverScene" style="stroke: #A80036; stroke-width: 1.5;" width="126" x="588" y="820"/><ellipse cx="603" cy="836" fill="#ADD1B2" rx="11" ry="11" style="stroke: #A80036; stroke-width: 1.0;"/><path d="M605.7031,841.4375 Q604.7813,842.3594 602.5156,842.3594 Q601.25,842.3594 600.3281,841.4375 Q598.6719,839.7813 598.6719,836.25 Q598.6719,832.1406 600.4531,830.3438 Q601.3906,829.4219 602.5781,829.4219 Q604.8438,829.4219 605.5781,830.1406 Q606.9688,831.5469 606.9063,833.9375 L604.4375,833.9375 Q604.375,831.8125 603.6406,831.0781 Q603.25,830.6719 602.5781,830.6719 Q602.5781,830.6719 602.5156,831.1406 Q601.1875,832.4688 601.1875,836.125 Q601.1875,839.3125 602.3281,840.4375 Q602.8594,840.9688 602.8594,840.9688 Q603.1094,840.9688 603.6406,840.4375 Q604.3125,839.7813 604.375,837.3906 L606.9688,837.3906 Q606.7656,840.375 605.7031,841.4375 Z "/><text fill="#000000" font-family="sans-serif" font-size="12" lengthAdjust="spacingAndGlyphs" textLength="94" x="617" y="840.9102">GameOverScene</text><line style="stroke: #A80036; stroke-width: 1.5;" x1="589" x2="713" y1="852" y2="852"/><line style="stroke: #A80036; stroke-width: 1.5;" x1="589" x2="713" y1="860" y2="860"/><!--class ParameterScene--><rect fill="#FEFECE" filter="url(#f1gpafuaxb29pm)" height="48" id="ParameterScene" style="stroke: #A80036; stroke-width: 1.5;" width="125" x="38.5" y="820"/><ellipse cx="53.5" cy="836" fill="#ADD1B2" rx="11" ry="11" style="stroke: #A80036; stroke-width: 1.0;"/><path d="M56.2031,841.4375 Q55.2813,842.3594 53.0156,842.3594 Q51.75,842.3594 50.8281,841.4375 Q49.1719,839.7813 49.1719,836.25 Q49.1719,832.1406 50.9531,830.3438 Q51.8906,829.4219 53.0781,829.4219 Q55.3438,829.4219 56.0781,830.1406 Q57.4688,831.5469 57.4063,833.9375 L54.9375,833.9375 Q54.875,831.8125 54.1406,831.0781 Q53.75,830.6719 53.0781,830.6719 Q53.0781,830.6719 53.0156,831.1406 Q51.6875,832.4688 51.6875,836.125 Q51.6875,839.3125 52.8281,840.4375 Q53.3594,840.9688 53.3594,840.9688 Q53.6094,840.9688 54.1406,840.4375 Q54.8125,839.7813 54.875,837.3906 L57.4688,837.3906 Q57.2656,840.375 56.2031,841.4375 Z "/><text fill="#000000" font-family="sans-serif" font-size="12" lengthAdjust="spacingAndGlyphs" textLength="93" x="67.5" y="840.9102">ParameterScene</text><line style="stroke: #A80036; stroke-width: 1.5;" x1="39.5" x2="162.5" y1="852" y2="852"/><line style="stroke: #A80036; stroke-width: 1.5;" x1="39.5" x2="162.5" y1="860" y2="860"/><!--class PlayScene--><rect fill="#FEFECE" filter="url(#f1gpafuaxb29pm)" height="48" id="PlayScene" style="stroke: #A80036; stroke-width: 1.5;" width="90" x="199" y="820"/><ellipse cx="214" cy="836" fill="#ADD1B2" rx="11" ry="11" style="stroke: #A80036; stroke-width: 1.0;"/><path d="M216.7031,841.4375 Q215.7813,842.3594 213.5156,842.3594 Q212.25,842.3594 211.3281,841.4375 Q209.6719,839.7813 209.6719,836.25 Q209.6719,832.1406 211.4531,830.3438 Q212.3906,829.4219 213.5781,829.4219 Q215.8438,829.4219 216.5781,830.1406 Q217.9688,831.5469 217.9063,833.9375 L215.4375,833.9375 Q215.375,831.8125 214.6406,831.0781 Q214.25,830.6719 213.5781,830.6719 Q213.5781,830.6719 213.5156,831.1406 Q212.1875,832.4688 212.1875,836.125 Q212.1875,839.3125 213.3281,840.4375 Q213.8594,840.9688 213.8594,840.9688 Q214.1094,840.9688 214.6406,840.4375 Q215.3125,839.7813 215.375,837.3906 L217.9688,837.3906 Q217.7656,840.375 216.7031,841.4375 Z "/><text fill="#000000" font-family="sans-serif" font-size="12" lengthAdjust="spacingAndGlyphs" textLength="58" x="228" y="840.9102">PlayScene</text><line style="stroke: #A80036; stroke-width: 1.5;" x1="200" x2="288" y1="852" y2="852"/><line style="stroke: #A80036; stroke-width: 1.5;" x1="200" x2="288" y1="860" y2="860"/><!--class ResultScene--><rect fill="#FEFECE" filter="url(#f1gpafuaxb29pm)" height="48" id="ResultScene" style="stroke: #A80036; stroke-width: 1.5;" width="103" x="324.5" y="820"/><ellipse cx="339.5" cy="836" fill="#ADD1B2" rx="11" ry="11" style="stroke: #A80036; stroke-width: 1.0;"/><path d="M342.2031,841.4375 Q341.2813,842.3594 339.0156,842.3594 Q337.75,842.3594 336.8281,841.4375 Q335.1719,839.7813 335.1719,836.25 Q335.1719,832.1406 336.9531,830.3438 Q337.8906,829.4219 339.0781,829.4219 Q341.3438,829.4219 342.0781,830.1406 Q343.4688,831.5469 343.4063,833.9375 L340.9375,833.9375 Q340.875,831.8125 340.1406,831.0781 Q339.75,830.6719 339.0781,830.6719 Q339.0781,830.6719 339.0156,831.1406 Q337.6875,832.4688 337.6875,836.125 Q337.6875,839.3125 338.8281,840.4375 Q339.3594,840.9688 339.3594,840.9688 Q339.6094,840.9688 340.1406,840.4375 Q340.8125,839.7813 340.875,837.3906 L343.4688,837.3906 Q343.2656,840.375 342.2031,841.4375 Z "/><text fill="#000000" font-family="sans-serif" font-size="12" lengthAdjust="spacingAndGlyphs" textLength="71" x="353.5" y="840.9102">ResultScene</text><line style="stroke: #A80036; stroke-width: 1.5;" x1="325.5" x2="426.5" y1="852" y2="852"/><line style="stroke: #A80036; stroke-width: 1.5;" x1="325.5" x2="426.5" y1="860" y2="860"/><!--class TitleScene--><rect fill="#FEFECE" filter="url(#f1gpafuaxb29pm)" height="48" id="TitleScene" style="stroke: #A80036; stroke-width: 1.5;" width="90" x="463" y="820"/><ellipse cx="478" cy="836" fill="#ADD1B2" rx="11" ry="11" style="stroke: #A80036; stroke-width: 1.0;"/><path d="M480.7031,841.4375 Q479.7813,842.3594 477.5156,842.3594 Q476.25,842.3594 475.3281,841.4375 Q473.6719,839.7813 473.6719,836.25 Q473.6719,832.1406 475.4531,830.3438 Q476.3906,829.4219 477.5781,829.4219 Q479.8438,829.4219 480.5781,830.1406 Q481.9688,831.5469 481.9063,833.9375 L479.4375,833.9375 Q479.375,831.8125 478.6406,831.0781 Q478.25,830.6719 477.5781,830.6719 Q477.5781,830.6719 477.5156,831.1406 Q476.1875,832.4688 476.1875,836.125 Q476.1875,839.3125 477.3281,840.4375 Q477.8594,840.9688 477.8594,840.9688 Q478.1094,840.9688 478.6406,840.4375 Q479.3125,839.7813 479.375,837.3906 L481.9688,837.3906 Q481.7656,840.375 480.7031,841.4375 Z "/><text fill="#000000" font-family="sans-serif" font-size="12" lengthAdjust="spacingAndGlyphs" textLength="58" x="492" y="840.9102">TitleScene</text><line style="stroke: #A80036; stroke-width: 1.5;" x1="464" x2="552" y1="852" y2="852"/><line style="stroke: #A80036; stroke-width: 1.5;" x1="464" x2="552" y1="860" y2="860"/><!--class InputFlagCode--><rect fill="#FEFECE" filter="url(#f1gpafuaxb29pm)" height="48" id="InputFlagCode" style="stroke: #A80036; stroke-width: 1.5;" width="113" x="2123.5" y="152"/><ellipse cx="2138.5" cy="168" fill="#EB937F" rx="11" ry="11" style="stroke: #A80036; stroke-width: 1.0;"/><path d="M2137.0313,166.8594 L2141.5469,166.8594 L2141.5469,168.125 L2137.0313,168.125 L2137.0313,173.1094 L2142.2656,173.1094 L2142.2656,174.3594 L2134.5,174.3594 L2134.5,161.4219 L2141.9375,161.4219 L2141.9375,162.6719 L2137.0313,162.6719 L2137.0313,166.8594 Z "/><text fill="#000000" font-family="sans-serif" font-size="12" lengthAdjust="spacingAndGlyphs" textLength="81" x="2152.5" y="172.9102">InputFlagCode</text><line style="stroke: #A80036; stroke-width: 1.5;" x1="2124.5" x2="2235.5" y1="184" y2="184"/><line style="stroke: #A80036; stroke-width: 1.5;" x1="2124.5" x2="2235.5" y1="192" y2="192"/><!--class InputFlag--><rect fill="#FEFECE" filter="url(#f1gpafuaxb29pm)" height="48" id="InputFlag" style="stroke: #A80036; stroke-width: 1.5;" width="83" x="2005.5" y="152"/><ellipse cx="2020.5" cy="168" fill="#ADD1B2" rx="11" ry="11" style="stroke: #A80036; stroke-width: 1.0;"/><path d="M2023.2031,173.4375 Q2022.2813,174.3594 2020.0156,174.3594 Q2018.75,174.3594 2017.8281,173.4375 Q2016.1719,171.7813 2016.1719,168.25 Q2016.1719,164.1406 2017.9531,162.3438 Q2018.8906,161.4219 2020.0781,161.4219 Q2022.3438,161.4219 2023.0781,162.1406 Q2024.4688,163.5469 2024.4063,165.9375 L2021.9375,165.9375 Q2021.875,163.8125 2021.1406,163.0781 Q2020.75,162.6719 2020.0781,162.6719 Q2020.0781,162.6719 2020.0156,163.1406 Q2018.6875,164.4688 2018.6875,168.125 Q2018.6875,171.3125 2019.8281,172.4375 Q2020.3594,172.9688 2020.3594,172.9688 Q2020.6094,172.9688 2021.1406,172.4375 Q2021.8125,171.7813 2021.875,169.3906 L2024.4688,169.3906 Q2024.2656,172.375 2023.2031,173.4375 Z "/><text fill="#000000" font-family="sans-serif" font-size="12" lengthAdjust="spacingAndGlyphs" textLength="51" x="2034.5" y="172.9102">InputFlag</text><line style="stroke: #A80036; stroke-width: 1.5;" x1="2006.5" x2="2087.5" y1="184" y2="184"/><line style="stroke: #A80036; stroke-width: 1.5;" x1="2006.5" x2="2087.5" y1="192" y2="192"/><!--class GameState--><rect fill="#FEFECE" filter="url(#f1gpafuaxb29pm)" height="48" id="GameState" style="stroke: #A80036; stroke-width: 1.5;" width="94" x="194" y="152"/><ellipse cx="209" cy="168" fill="#EB937F" rx="11" ry="11" style="stroke: #A80036; stroke-width: 1.0;"/><path d="M207.5313,166.8594 L212.0469,166.8594 L212.0469,168.125 L207.5313,168.125 L207.5313,173.1094 L212.7656,173.1094 L212.7656,174.3594 L205,174.3594 L205,161.4219 L212.4375,161.4219 L212.4375,162.6719 L207.5313,162.6719 L207.5313,166.8594 Z "/><text fill="#000000" font-family="sans-serif" font-size="12" lengthAdjust="spacingAndGlyphs" textLength="62" x="223" y="172.9102">GameState</text><line style="stroke: #A80036; stroke-width: 1.5;" x1="195" x2="287" y1="184" y2="184"/><line style="stroke: #A80036; stroke-width: 1.5;" x1="195" x2="287" y1="192" y2="192"/><!--class MoveObjState--><rect fill="#FEFECE" filter="url(#f1gpafuaxb29pm)" height="48" id="MoveObjState" style="stroke: #A80036; stroke-width: 1.5;" width="107" x="323.5" y="152"/><ellipse cx="338.5" cy="168" fill="#EB937F" rx="11" ry="11" style="stroke: #A80036; stroke-width: 1.0;"/><path d="M337.0313,166.8594 L341.5469,166.8594 L341.5469,168.125 L337.0313,168.125 L337.0313,173.1094 L342.2656,173.1094 L342.2656,174.3594 L334.5,174.3594 L334.5,161.4219 L341.9375,161.4219 L341.9375,162.6719 L337.0313,162.6719 L337.0313,166.8594 Z "/><text fill="#000000" font-family="sans-serif" font-size="12" lengthAdjust="spacingAndGlyphs" textLength="75" x="352.5" y="172.9102">MoveObjState</text><line style="stroke: #A80036; stroke-width: 1.5;" x1="324.5" x2="429.5" y1="184" y2="184"/><line style="stroke: #A80036; stroke-width: 1.5;" x1="324.5" x2="429.5" y1="192" y2="192"/><!--class Object--><rect fill="#FEFECE" filter="url(#f1gpafuaxb29pm)" height="48" id="Object" style="stroke: #A80036; stroke-width: 1.5;" width="67" x="207.5" y="284"/><ellipse cx="222.5" cy="300" fill="#EB937F" rx="11" ry="11" style="stroke: #A80036; stroke-width: 1.0;"/><path d="M221.0313,298.8594 L225.5469,298.8594 L225.5469,300.125 L221.0313,300.125 L221.0313,305.1094 L226.2656,305.1094 L226.2656,306.3594 L218.5,306.3594 L218.5,293.4219 L225.9375,293.4219 L225.9375,294.6719 L221.0313,294.6719 L221.0313,298.8594 Z "/><text fill="#000000" font-family="sans-serif" font-size="12" lengthAdjust="spacingAndGlyphs" textLength="35" x="236.5" y="304.9102">Object</text><line style="stroke: #A80036; stroke-width: 1.5;" x1="208.5" x2="273.5" y1="316" y2="316"/><line style="stroke: #A80036; stroke-width: 1.5;" x1="208.5" x2="273.5" y1="324" y2="324"/><!--class AnimResource--><rect fill="#FEFECE" filter="url(#f1gpafuaxb29pm)" height="56.1875" id="AnimResource" style="stroke: #A80036; stroke-width: 1.5;" width="114" x="2256" y="944"/><ellipse cx="2271" cy="964.0938" fill="#FF7700" rx="11" ry="11" style="stroke: #A80036; stroke-width: 1.0;"/><path d="M2273.25,964.3438 Q2274.7656,965.2188 2274.7656,966.875 Q2274.7656,968.5313 2273.7813,969.5313 Q2272.8438,970.4531 2270.1875,970.4531 Q2268.5938,970.4531 2267.7344,969.5938 Q2266.6719,968.5313 2266.6719,967.0781 L2266.6719,966.4063 L2269.1875,966.4063 L2269.1875,967 Q2269.1875,968.0625 2269.7188,968.5938 Q2270.25,969.125 2270.25,969.125 Q2271.1094,969.125 2271.6406,968.5938 Q2272.25,968 2272.25,967.0781 Q2272.25,966.0781 2271.3125,965.4844 Q2269.6563,964.4219 2268.1875,963.2188 Q2267.125,962.3594 2267.0625,960.8906 Q2267,959.4375 2268.0625,958.4375 Q2269.0625,957.5156 2270.25,957.5156 Q2272.7188,957.5156 2273.5156,958.3125 Q2274.5,959.2969 2274.4375,961.0938 L2271.9063,961.0938 Q2272.0469,959.9688 2271.375,959.2969 Q2270.9219,958.8438 2270.25,958.8438 Q2270.25,958.8438 2270.125,959.2969 Q2269.5313,959.9063 2269.5313,960.7031 Q2269.5313,961.5625 2270.4531,962.3594 Q2271.8438,963.5469 2273.25,964.3438 Z "/><text fill="#000000" font-family="sans-serif" font-size="12" font-style="italic" lengthAdjust="spacingAndGlyphs" textLength="43" x="2304.5" y="961.457">«struct»</text><text fill="#000000" font-family="sans-serif" font-size="12" lengthAdjust="spacingAndGlyphs" textLength="82" x="2285" y="976.5508">AnimResource</text><line style="stroke: #A80036; stroke-width: 1.5;" x1="2257" x2="2369" y1="984.1875" y2="984.1875"/><line style="stroke: #A80036; stroke-width: 1.5;" x1="2257" x2="2369" y1="992.1875" y2="992.1875"/><!--class Animation--><rect fill="#FEFECE" filter="url(#f1gpafuaxb29pm)" height="48" id="Animation" style="stroke: #A80036; stroke-width: 1.5;" width="87" x="2133.5" y="948"/><ellipse cx="2148.5" cy="964" fill="#ADD1B2" rx="11" ry="11" style="stroke: #A80036; stroke-width: 1.0;"/><path d="M2151.2031,969.4375 Q2150.2813,970.3594 2148.0156,970.3594 Q2146.75,970.3594 2145.8281,969.4375 Q2144.1719,967.7813 2144.1719,964.25 Q2144.1719,960.1406 2145.9531,958.3438 Q2146.8906,957.4219 2148.0781,957.4219 Q2150.3438,957.4219 2151.0781,958.1406 Q2152.4688,959.5469 2152.4063,961.9375 L2149.9375,961.9375 Q2149.875,959.8125 2149.1406,959.0781 Q2148.75,958.6719 2148.0781,958.6719 Q2148.0781,958.6719 2148.0156,959.1406 Q2146.6875,960.4688 2146.6875,964.125 Q2146.6875,967.3125 2147.8281,968.4375 Q2148.3594,968.9688 2148.3594,968.9688 Q2148.6094,968.9688 2149.1406,968.4375 Q2149.8125,967.7813 2149.875,965.3906 L2152.4688,965.3906 Q2152.2656,968.375 2151.2031,969.4375 Z "/><text fill="#000000" font-family="sans-serif" font-size="12" lengthAdjust="spacingAndGlyphs" textLength="55" x="2162.5" y="968.9102">Animation</text><line style="stroke: #A80036; stroke-width: 1.5;" x1="2134.5" x2="2219.5" y1="980" y2="980"/><line style="stroke: #A80036; stroke-width: 1.5;" x1="2134.5" x2="2219.5" y1="988" y2="988"/><!--class Math--><rect fill="#FEFECE" filter="url(#f1gpafuaxb29pm)" height="48" id="Math" style="stroke: #A80036; stroke-width: 1.5;" width="58" x="847" y="152"/><ellipse cx="862" cy="168" fill="#ADD1B2" rx="11" ry="11" style="stroke: #A80036; stroke-width: 1.0;"/><path d="M864.7031,173.4375 Q863.7813,174.3594 861.5156,174.3594 Q860.25,174.3594 859.3281,173.4375 Q857.6719,171.7813 857.6719,168.25 Q857.6719,164.1406 859.4531,162.3438 Q860.3906,161.4219 861.5781,161.4219 Q863.8438,161.4219 864.5781,162.1406 Q865.9688,163.5469 865.9063,165.9375 L863.4375,165.9375 Q863.375,163.8125 862.6406,163.0781 Q862.25,162.6719 861.5781,162.6719 Q861.5781,162.6719 861.5156,163.1406 Q860.1875,164.4688 860.1875,168.125 Q860.1875,171.3125 861.3281,172.4375 Q861.8594,172.9688 861.8594,172.9688 Q862.1094,172.9688 862.6406,172.4375 Q863.3125,171.7813 863.375,169.3906 L865.9688,169.3906 Q865.7656,172.375 864.7031,173.4375 Z "/><text fill="#000000" font-family="sans-serif" font-size="12" lengthAdjust="spacingAndGlyphs" textLength="26" x="876" y="172.9102">Math</text><line style="stroke: #A80036; stroke-width: 1.5;" x1="848" x2="904" y1="184" y2="184"/><line style="stroke: #A80036; stroke-width: 1.5;" x1="848" x2="904" y1="192" y2="192"/><!--class Vector3--><rect fill="#FEFECE" filter="url(#f1gpafuaxb29pm)" height="56.1875" id="Vector3" style="stroke: #A80036; stroke-width: 1.5;" width="73" x="940.5" y="148"/><ellipse cx="955.5" cy="168.0938" fill="#FF7700" rx="11" ry="11" style="stroke: #A80036; stroke-width: 1.0;"/><path d="M957.75,168.3438 Q959.2656,169.2188 959.2656,170.875 Q959.2656,172.5313 958.2813,173.5313 Q957.3438,174.4531 954.6875,174.4531 Q953.0938,174.4531 952.2344,173.5938 Q951.1719,172.5313 951.1719,171.0781 L951.1719,170.4063 L953.6875,170.4063 L953.6875,171 Q953.6875,172.0625 954.2188,172.5938 Q954.75,173.125 954.75,173.125 Q955.6094,173.125 956.1406,172.5938 Q956.75,172 956.75,171.0781 Q956.75,170.0781 955.8125,169.4844 Q954.1563,168.4219 952.6875,167.2188 Q951.625,166.3594 951.5625,164.8906 Q951.5,163.4375 952.5625,162.4375 Q953.5625,161.5156 954.75,161.5156 Q957.2188,161.5156 958.0156,162.3125 Q959,163.2969 958.9375,165.0938 L956.4063,165.0938 Q956.5469,163.9688 955.875,163.2969 Q955.4219,162.8438 954.75,162.8438 Q954.75,162.8438 954.625,163.2969 Q954.0313,163.9063 954.0313,164.7031 Q954.0313,165.5625 954.9531,166.3594 Q956.3438,167.5469 957.75,168.3438 Z "/><text fill="#000000" font-family="sans-serif" font-size="12" font-style="italic" lengthAdjust="spacingAndGlyphs" textLength="43" x="968.5" y="165.457">«struct»</text><text fill="#000000" font-family="sans-serif" font-size="12" lengthAdjust="spacingAndGlyphs" textLength="41" x="969.5" y="180.5508">Vector3</text><line style="stroke: #A80036; stroke-width: 1.5;" x1="941.5" x2="1012.5" y1="188.1875" y2="188.1875"/><line style="stroke: #A80036; stroke-width: 1.5;" x1="941.5" x2="1012.5" y1="196.1875" y2="196.1875"/><!--class Vector2--><rect fill="#FEFECE" filter="url(#f1gpafuaxb29pm)" height="56.1875" id="Vector2" style="stroke: #A80036; stroke-width: 1.5;" width="73" x="847.5" y="280"/><ellipse cx="862.5" cy="300.0938" fill="#FF7700" rx="11" ry="11" style="stroke: #A80036; stroke-width: 1.0;"/><path d="M864.75,300.3438 Q866.2656,301.2188 866.2656,302.875 Q866.2656,304.5313 865.2813,305.5313 Q864.3438,306.4531 861.6875,306.4531 Q860.0938,306.4531 859.2344,305.5938 Q858.1719,304.5313 858.1719,303.0781 L858.1719,302.4063 L860.6875,302.4063 L860.6875,303 Q860.6875,304.0625 861.2188,304.5938 Q861.75,305.125 861.75,305.125 Q862.6094,305.125 863.1406,304.5938 Q863.75,304 863.75,303.0781 Q863.75,302.0781 862.8125,301.4844 Q861.1563,300.4219 859.6875,299.2188 Q858.625,298.3594 858.5625,296.8906 Q858.5,295.4375 859.5625,294.4375 Q860.5625,293.5156 861.75,293.5156 Q864.2188,293.5156 865.0156,294.3125 Q866,295.2969 865.9375,297.0938 L863.4063,297.0938 Q863.5469,295.9688 862.875,295.2969 Q862.4219,294.8438 861.75,294.8438 Q861.75,294.8438 861.625,295.2969 Q861.0313,295.9063 861.0313,296.7031 Q861.0313,297.5625 861.9531,298.3594 Q863.3438,299.5469 864.75,300.3438 Z "/><text fill="#000000" font-family="sans-serif" font-size="12" font-style="italic" lengthAdjust="spacingAndGlyphs" textLength="43" x="875.5" y="297.457">«struct»</text><text fill="#000000" font-family="sans-serif" font-size="12" lengthAdjust="spacingAndGlyphs" textLength="41" x="876.5" y="312.5508">Vector2</text><line style="stroke: #A80036; stroke-width: 1.5;" x1="848.5" x2="919.5" y1="320.1875" y2="320.1875"/><line style="stroke: #A80036; stroke-width: 1.5;" x1="848.5" x2="919.5" y1="328.1875" y2="328.1875"/><!--class Dx11--><rect fill="#FEFECE" filter="url(#f1gpafuaxb29pm)" height="48" id="Dx11" style="stroke: #A80036; stroke-width: 1.5;" width="60" x="2240" y="460"/><ellipse cx="2255" cy="476" fill="#ADD1B2" rx="11" ry="11" style="stroke: #A80036; stroke-width: 1.0;"/><path d="M2257.7031,481.4375 Q2256.7813,482.3594 2254.5156,482.3594 Q2253.25,482.3594 2252.3281,481.4375 Q2250.6719,479.7813 2250.6719,476.25 Q2250.6719,472.1406 2252.4531,470.3438 Q2253.3906,469.4219 2254.5781,469.4219 Q2256.8438,469.4219 2257.5781,470.1406 Q2258.9688,471.5469 2258.9063,473.9375 L2256.4375,473.9375 Q2256.375,471.8125 2255.6406,471.0781 Q2255.25,470.6719 2254.5781,470.6719 Q2254.5781,470.6719 2254.5156,471.1406 Q2253.1875,472.4688 2253.1875,476.125 Q2253.1875,479.3125 2254.3281,480.4375 Q2254.8594,480.9688 2254.8594,480.9688 Q2255.1094,480.9688 2255.6406,480.4375 Q2256.3125,479.7813 2256.375,477.3906 L2258.9688,477.3906 Q2258.7656,480.375 2257.7031,481.4375 Z "/><text fill="#000000" font-family="sans-serif" font-size="12" lengthAdjust="spacingAndGlyphs" textLength="28" x="2269" y="480.9102">Dx11</text><line style="stroke: #A80036; stroke-width: 1.5;" x1="2241" x2="2299" y1="492" y2="492"/><line style="stroke: #A80036; stroke-width: 1.5;" x1="2241" x2="2299" y1="500" y2="500"/><!--class GameManager--><rect fill="#FEFECE" filter="url(#f1gpafuaxb29pm)" height="48" id="GameManager" style="stroke: #A80036; stroke-width: 1.5;" width="114" x="2091" y="460"/><ellipse cx="2106" cy="476" fill="#ADD1B2" rx="11" ry="11" style="stroke: #A80036; stroke-width: 1.0;"/><path d="M2108.7031,481.4375 Q2107.7813,482.3594 2105.5156,482.3594 Q2104.25,482.3594 2103.3281,481.4375 Q2101.6719,479.7813 2101.6719,476.25 Q2101.6719,472.1406 2103.4531,470.3438 Q2104.3906,469.4219 2105.5781,469.4219 Q2107.8438,469.4219 2108.5781,470.1406 Q2109.9688,471.5469 2109.9063,473.9375 L2107.4375,473.9375 Q2107.375,471.8125 2106.6406,471.0781 Q2106.25,470.6719 2105.5781,470.6719 Q2105.5781,470.6719 2105.5156,471.1406 Q2104.1875,472.4688 2104.1875,476.125 Q2104.1875,479.3125 2105.3281,480.4375 Q2105.8594,480.9688 2105.8594,480.9688 Q2106.1094,480.9688 2106.6406,480.4375 Q2107.3125,479.7813 2107.375,477.3906 L2109.9688,477.3906 Q2109.7656,480.375 2108.7031,481.4375 Z "/><text fill="#000000" font-family="sans-serif" font-size="12" lengthAdjust="spacingAndGlyphs" textLength="82" x="2120" y="480.9102">GameManager</text><line style="stroke: #A80036; stroke-width: 1.5;" x1="2092" x2="2204" y1="492" y2="492"/><line style="stroke: #A80036; stroke-width: 1.5;" x1="2092" x2="2204" y1="500" y2="500"/><!--class ScoreManager--><rect fill="#FEFECE" filter="url(#f1gpafuaxb29pm)" height="48" id="ScoreManager" style="stroke: #A80036; stroke-width: 1.5;" width="112" x="2335" y="460"/><ellipse cx="2350" cy="476" fill="#ADD1B2" rx="11" ry="11" style="stroke: #A80036; stroke-width: 1.0;"/><path d="M2352.7031,481.4375 Q2351.7813,482.3594 2349.5156,482.3594 Q2348.25,482.3594 2347.3281,481.4375 Q2345.6719,479.7813 2345.6719,476.25 Q2345.6719,472.1406 2347.4531,470.3438 Q2348.3906,469.4219 2349.5781,469.4219 Q2351.8438,469.4219 2352.5781,470.1406 Q2353.9688,471.5469 2353.9063,473.9375 L2351.4375,473.9375 Q2351.375,471.8125 2350.6406,471.0781 Q2350.25,470.6719 2349.5781,470.6719 Q2349.5781,470.6719 2349.5156,471.1406 Q2348.1875,472.4688 2348.1875,476.125 Q2348.1875,479.3125 2349.3281,480.4375 Q2349.8594,480.9688 2349.8594,480.9688 Q2350.1094,480.9688 2350.6406,480.4375 Q2351.3125,479.7813 2351.375,477.3906 L2353.9688,477.3906 Q2353.7656,480.375 2352.7031,481.4375 Z "/><text fill="#000000" font-family="sans-serif" font-size="12" lengthAdjust="spacingAndGlyphs" textLength="80" x="2364" y="480.9102">ScoreManager</text><line style="stroke: #A80036; stroke-width: 1.5;" x1="2336" x2="2446" y1="492" y2="492"/><line style="stroke: #A80036; stroke-width: 1.5;" x1="2336" x2="2446" y1="500" y2="500"/><!--class SoundData--><rect fill="#FEFECE" filter="url(#f1gpafuaxb29pm)" height="48" id="SoundData" style="stroke: #A80036; stroke-width: 1.5;" width="94" x="2636" y="460"/><ellipse cx="2651" cy="476" fill="#ADD1B2" rx="11" ry="11" style="stroke: #A80036; stroke-width: 1.0;"/><path d="M2653.7031,481.4375 Q2652.7813,482.3594 2650.5156,482.3594 Q2649.25,482.3594 2648.3281,481.4375 Q2646.6719,479.7813 2646.6719,476.25 Q2646.6719,472.1406 2648.4531,470.3438 Q2649.3906,469.4219 2650.5781,469.4219 Q2652.8438,469.4219 2653.5781,470.1406 Q2654.9688,471.5469 2654.9063,473.9375 L2652.4375,473.9375 Q2652.375,471.8125 2651.6406,471.0781 Q2651.25,470.6719 2650.5781,470.6719 Q2650.5781,470.6719 2650.5156,471.1406 Q2649.1875,472.4688 2649.1875,476.125 Q2649.1875,479.3125 2650.3281,480.4375 Q2650.8594,480.9688 2650.8594,480.9688 Q2651.1094,480.9688 2651.6406,480.4375 Q2652.3125,479.7813 2652.375,477.3906 L2654.9688,477.3906 Q2654.7656,480.375 2653.7031,481.4375 Z "/><text fill="#000000" font-family="sans-serif" font-size="12" lengthAdjust="spacingAndGlyphs" textLength="62" x="2665" y="480.9102">SoundData</text><line style="stroke: #A80036; stroke-width: 1.5;" x1="2637" x2="2729" y1="492" y2="492"/><line style="stroke: #A80036; stroke-width: 1.5;" x1="2637" x2="2729" y1="500" y2="500"/><!--class TextureData--><rect fill="#FEFECE" filter="url(#f1gpafuaxb29pm)" height="48" id="TextureData" style="stroke: #A80036; stroke-width: 1.5;" width="98" x="2503" y="460"/><ellipse cx="2518" cy="476" fill="#ADD1B2" rx="11" ry="11" style="stroke: #A80036; stroke-width: 1.0;"/><path d="M2520.7031,481.4375 Q2519.7813,482.3594 2517.5156,482.3594 Q2516.25,482.3594 2515.3281,481.4375 Q2513.6719,479.7813 2513.6719,476.25 Q2513.6719,472.1406 2515.4531,470.3438 Q2516.3906,469.4219 2517.5781,469.4219 Q2519.8438,469.4219 2520.5781,470.1406 Q2521.9688,471.5469 2521.9063,473.9375 L2519.4375,473.9375 Q2519.375,471.8125 2518.6406,471.0781 Q2518.25,470.6719 2517.5781,470.6719 Q2517.5781,470.6719 2517.5156,471.1406 Q2516.1875,472.4688 2516.1875,476.125 Q2516.1875,479.3125 2517.3281,480.4375 Q2517.8594,480.9688 2517.8594,480.9688 Q2518.1094,480.9688 2518.6406,480.4375 Q2519.3125,479.7813 2519.375,477.3906 L2521.9688,477.3906 Q2521.7656,480.375 2520.7031,481.4375 Z "/><text fill="#000000" font-family="sans-serif" font-size="12" lengthAdjust="spacingAndGlyphs" textLength="66" x="2532" y="480.9102">TextureData</text><line style="stroke: #A80036; stroke-width: 1.5;" x1="2504" x2="2600" y1="492" y2="492"/><line style="stroke: #A80036; stroke-width: 1.5;" x1="2504" x2="2600" y1="500" y2="500"/><!--class vertex--><rect fill="#FEFECE" filter="url(#f1gpafuaxb29pm)" height="56.1875" id="vertex" style="stroke: #A80036; stroke-width: 1.5;" width="71" x="1385.5" y="148"/><ellipse cx="1400.5" cy="168.0938" fill="#FF7700" rx="11" ry="11" style="stroke: #A80036; stroke-width: 1.0;"/><path d="M1402.75,168.3438 Q1404.2656,169.2188 1404.2656,170.875 Q1404.2656,172.5313 1403.2813,173.5313 Q1402.3438,174.4531 1399.6875,174.4531 Q1398.0938,174.4531 1397.2344,173.5938 Q1396.1719,172.5313 1396.1719,171.0781 L1396.1719,170.4063 L1398.6875,170.4063 L1398.6875,171 Q1398.6875,172.0625 1399.2188,172.5938 Q1399.75,173.125 1399.75,173.125 Q1400.6094,173.125 1401.1406,172.5938 Q1401.75,172 1401.75,171.0781 Q1401.75,170.0781 1400.8125,169.4844 Q1399.1563,168.4219 1397.6875,167.2188 Q1396.625,166.3594 1396.5625,164.8906 Q1396.5,163.4375 1397.5625,162.4375 Q1398.5625,161.5156 1399.75,161.5156 Q1402.2188,161.5156 1403.0156,162.3125 Q1404,163.2969 1403.9375,165.0938 L1401.4063,165.0938 Q1401.5469,163.9688 1400.875,163.2969 Q1400.4219,162.8438 1399.75,162.8438 Q1399.75,162.8438 1399.625,163.2969 Q1399.0313,163.9063 1399.0313,164.7031 Q1399.0313,165.5625 1399.9531,166.3594 Q1401.3438,167.5469 1402.75,168.3438 Z "/><text fill="#000000" font-family="sans-serif" font-size="12" font-style="italic" lengthAdjust="spacingAndGlyphs" textLength="43" x="1412.5" y="165.457">«struct»</text><text fill="#000000" font-family="sans-serif" font-size="12" lengthAdjust="spacingAndGlyphs" textLength="31" x="1418.5" y="180.5508">vertex</text><line style="stroke: #A80036; stroke-width: 1.5;" x1="1386.5" x2="1455.5" y1="188.1875" y2="188.1875"/><line style="stroke: #A80036; stroke-width: 1.5;" x1="1386.5" x2="1455.5" y1="196.1875" y2="196.1875"/><!--class Polyogn--><rect fill="#FEFECE" filter="url(#f1gpafuaxb29pm)" height="48" id="Polyogn" style="stroke: #A80036; stroke-width: 1.5;" width="76" x="1274" y="152"/><ellipse cx="1289" cy="168" fill="#ADD1B2" rx="11" ry="11" style="stroke: #A80036; stroke-width: 1.0;"/><path d="M1291.7031,173.4375 Q1290.7813,174.3594 1288.5156,174.3594 Q1287.25,174.3594 1286.3281,173.4375 Q1284.6719,171.7813 1284.6719,168.25 Q1284.6719,164.1406 1286.4531,162.3438 Q1287.3906,161.4219 1288.5781,161.4219 Q1290.8438,161.4219 1291.5781,162.1406 Q1292.9688,163.5469 1292.9063,165.9375 L1290.4375,165.9375 Q1290.375,163.8125 1289.6406,163.0781 Q1289.25,162.6719 1288.5781,162.6719 Q1288.5781,162.6719 1288.5156,163.1406 Q1287.1875,164.4688 1287.1875,168.125 Q1287.1875,171.3125 1288.3281,172.4375 Q1288.8594,172.9688 1288.8594,172.9688 Q1289.1094,172.9688 1289.6406,172.4375 Q1290.3125,171.7813 1290.375,169.3906 L1292.9688,169.3906 Q1292.7656,172.375 1291.7031,173.4375 Z "/><text fill="#000000" font-family="sans-serif" font-size="12" lengthAdjust="spacingAndGlyphs" textLength="44" x="1303" y="172.9102">Polyogn</text><line style="stroke: #A80036; stroke-width: 1.5;" x1="1275" x2="1349" y1="184" y2="184"/><line style="stroke: #A80036; stroke-width: 1.5;" x1="1275" x2="1349" y1="192" y2="192"/><!--class Timer--><rect fill="#FEFECE" filter="url(#f1gpafuaxb29pm)" height="48" id="Timer" style="stroke: #A80036; stroke-width: 1.5;" width="64" x="69" y="948"/><ellipse cx="84" cy="964" fill="#ADD1B2" rx="11" ry="11" style="stroke: #A80036; stroke-width: 1.0;"/><path d="M86.7031,969.4375 Q85.7813,970.3594 83.5156,970.3594 Q82.25,970.3594 81.3281,969.4375 Q79.6719,967.7813 79.6719,964.25 Q79.6719,960.1406 81.4531,958.3438 Q82.3906,957.4219 83.5781,957.4219 Q85.8438,957.4219 86.5781,958.1406 Q87.9688,959.5469 87.9063,961.9375 L85.4375,961.9375 Q85.375,959.8125 84.6406,959.0781 Q84.25,958.6719 83.5781,958.6719 Q83.5781,958.6719 83.5156,959.1406 Q82.1875,960.4688 82.1875,964.125 Q82.1875,967.3125 83.3281,968.4375 Q83.8594,968.9688 83.8594,968.9688 Q84.1094,968.9688 84.6406,968.4375 Q85.3125,967.7813 85.375,965.3906 L87.9688,965.3906 Q87.7656,968.375 86.7031,969.4375 Z "/><text fill="#000000" font-family="sans-serif" font-size="12" lengthAdjust="spacingAndGlyphs" textLength="32" x="98" y="968.9102">Timer</text><line style="stroke: #A80036; stroke-width: 1.5;" x1="70" x2="132" y1="980" y2="980"/><line style="stroke: #A80036; stroke-width: 1.5;" x1="70" x2="132" y1="988" y2="988"/><!--class Stage--><rect fill="#FEFECE" filter="url(#f1gpafuaxb29pm)" height="48" id="Stage" style="stroke: #A80036; stroke-width: 1.5;" width="64" x="212" y="948"/><ellipse cx="227" cy="964" fill="#ADD1B2" rx="11" ry="11" style="stroke: #A80036; stroke-width: 1.0;"/><path d="M229.7031,969.4375 Q228.7813,970.3594 226.5156,970.3594 Q225.25,970.3594 224.3281,969.4375 Q222.6719,967.7813 222.6719,964.25 Q222.6719,960.1406 224.4531,958.3438 Q225.3906,957.4219 226.5781,957.4219 Q228.8438,957.4219 229.5781,958.1406 Q230.9688,959.5469 230.9063,961.9375 L228.4375,961.9375 Q228.375,959.8125 227.6406,959.0781 Q227.25,958.6719 226.5781,958.6719 Q226.5781,958.6719 226.5156,959.1406 Q225.1875,960.4688 225.1875,964.125 Q225.1875,967.3125 226.3281,968.4375 Q226.8594,968.9688 226.8594,968.9688 Q227.1094,968.9688 227.6406,968.4375 Q228.3125,967.7813 228.375,965.3906 L230.9688,965.3906 Q230.7656,968.375 229.7031,969.4375 Z "/><text fill="#000000" font-family="sans-serif" font-size="12" lengthAdjust="spacingAndGlyphs" textLength="32" x="241" y="968.9102">Stage</text><line style="stroke: #A80036; stroke-width: 1.5;" x1="213" x2="275" y1="980" y2="980"/><line style="stroke: #A80036; stroke-width: 1.5;" x1="213" x2="275" y1="988" y2="988"/><!--class Camera--><rect fill="#FEFECE" filter="url(#f1gpafuaxb29pm)" height="48" id="Camera" style="stroke: #A80036; stroke-width: 1.5;" width="77" x="469.5" y="948"/><ellipse cx="484.5" cy="964" fill="#ADD1B2" rx="11" ry="11" style="stroke: #A80036; stroke-width: 1.0;"/><path d="M487.2031,969.4375 Q486.2813,970.3594 484.0156,970.3594 Q482.75,970.3594 481.8281,969.4375 Q480.1719,967.7813 480.1719,964.25 Q480.1719,960.1406 481.9531,958.3438 Q482.8906,957.4219 484.0781,957.4219 Q486.3438,957.4219 487.0781,958.1406 Q488.4688,959.5469 488.4063,961.9375 L485.9375,961.9375 Q485.875,959.8125 485.1406,959.0781 Q484.75,958.6719 484.0781,958.6719 Q484.0781,958.6719 484.0156,959.1406 Q482.6875,960.4688 482.6875,964.125 Q482.6875,967.3125 483.8281,968.4375 Q484.3594,968.9688 484.3594,968.9688 Q484.6094,968.9688 485.1406,968.4375 Q485.8125,967.7813 485.875,965.3906 L488.4688,965.3906 Q488.2656,968.375 487.2031,969.4375 Z "/><text fill="#000000" font-family="sans-serif" font-size="12" lengthAdjust="spacingAndGlyphs" textLength="45" x="498.5" y="968.9102">Camera</text><line style="stroke: #A80036; stroke-width: 1.5;" x1="470.5" x2="545.5" y1="980" y2="980"/><line style="stroke: #A80036; stroke-width: 1.5;" x1="470.5" x2="545.5" y1="988" y2="988"/><!--reverse link RenderObj to Enemy--><path d="M1450.13,524.527 C1414.88,572.784 1356.44,652.792 1327.83,691.961 " fill="none" id="RenderObj&lt;-Enemy" style="stroke: #A80036; stroke-width: 1.0;"/><polygon fill="none" points="1444.52,520.341,1461.97,508.319,1455.82,528.599,1444.52,520.341" style="stroke: #A80036; stroke-width: 1.0;"/><!--reverse link NotPlayer to Enemy--><path d="M1317.49,528.401 C1315.8,576.966 1313.13,653.822 1311.8,691.961 " fill="none" id="NotPlayer&lt;-Enemy" style="stroke: #A80036; stroke-width: 1.0;"/><polygon fill="none" points="1310.5,528.064,1318.19,508.319,1324.49,528.551,1310.5,528.064" style="stroke: #A80036; stroke-width: 1.0;"/><!--reverse link IMoveObj to Enemy--><path d="M697.25,618.618 C835.235,640.287 1166.84,692.362 1275.71,709.459 " fill="none" id="IMoveObj&lt;-Enemy" style="stroke: #A80036; stroke-width: 1.0; stroke-dasharray: 7.0,7.0;"/><polygon fill="none" points="695.88,625.489,677.208,615.471,698.052,611.659,695.88,625.489" style="stroke: #A80036; stroke-width: 1.0;"/><!--reverse link Square to NotPlayer--><path d="M1313.75,352.416 C1315.12,386.44 1316.97,432.455 1318.07,459.799 " fill="none" id="Square&lt;-NotPlayer" style="stroke: #A80036; stroke-width: 1.0;"/><polygon fill="none" points="1306.74,352.371,1312.93,332.106,1320.73,351.808,1306.74,352.371" style="stroke: #A80036; stroke-width: 1.0;"/><!--reverse link RenderObj to BackGround--><path d="M1474.8,528.341 C1466.12,591.764 1440.02,708.349 1363,764 C1343.67,777.965 1277.53,761.747 1256,772 C1234.12,782.422 1215.78,803.354 1203.85,819.803 " fill="none" id="RenderObj&lt;-BackGround" style="stroke: #A80036; stroke-width: 1.0;"/><polygon fill="none" points="1467.87,527.337,1477.2,508.311,1481.77,529.002,1467.87,527.337" style="stroke: #A80036; stroke-width: 1.0;"/><!--reverse link NotPlayer to Block--><path d="M1335.21,527.363 C1364.32,603.421 1424.5,760.697 1447.14,819.839 " fill="none" id="NotPlayer&lt;-Block" style="stroke: #A80036; stroke-width: 1.0;"/><polygon fill="none" points="1328.49,529.394,1327.88,508.214,1341.57,524.391,1328.49,529.394" style="stroke: #A80036; stroke-width: 1.0;"/><!--reverse link RenderObj to Characters--><path d="M1492.51,527.431 C1516.23,601.92 1564.71,754.165 1584.4,815.997 " fill="none" id="RenderObj&lt;-Characters" style="stroke: #A80036; stroke-width: 1.0;"/><polygon fill="none" points="1485.79,529.395,1486.39,508.214,1499.13,525.147,1485.79,529.395" style="stroke: #A80036; stroke-width: 1.0;"/><!--reverse link Block to ClayPine--><path d="M1456,888.348 C1456,938.708 1456,1019.951 1456,1059.6518 " fill="none" id="Block&lt;-ClayPine" style="stroke: #A80036; stroke-width: 1.0;"/><polygon fill="none" points="1449,888.254,1456,868.254,1463,888.254,1449,888.254" style="stroke: #A80036; stroke-width: 1.0;"/><!--reverse link RenderObj to Goal--><path d="M1524.4,521.682 C1530.34,527.482 1536.07,533.667 1541,540 C1609.87,628.465 1571.79,691.146 1657,764 C1665.55,771.306 1672.08,765.161 1681,772 C1697.31,784.499 1709.76,804.357 1717.74,819.897 " fill="none" id="RenderObj&lt;-Goal" style="stroke: #A80036; stroke-width: 1.0;"/><polygon fill="none" points="1519.64,526.812,1509.53,508.191,1529.05,516.441,1519.64,526.812" style="stroke: #A80036; stroke-width: 1.0;"/><!--reverse link Square to Image--><path d="M1323.57,351.22 C1331.62,372.053 1344.64,395.369 1365,408 C1389.09,422.945 1594.81,402.991 1620,416 C1793.8,505.769 1891.72,744.362 1919.04,819.796 " fill="none" id="Square&lt;-Image" style="stroke: #A80036; stroke-width: 1.0;"/><polygon fill="none" points="1316.88,353.257,1317.21,332.07,1330.16,348.842,1316.88,353.257" style="stroke: #A80036; stroke-width: 1.0;"/><!--reverse link RenderObj to Image--><path d="M1544.91,497.977 C1578.38,506.518 1618.7,519.919 1651,540 C1772.72,615.674 1782.67,662.376 1875,772 C1887.89,787.308 1901.21,805.541 1911.14,819.697 " fill="none" id="RenderObj&lt;-Image" style="stroke: #A80036; stroke-width: 1.0;"/><polygon fill="none" points="1542.92,504.7,1525.08,493.27,1546.15,491.078,1542.92,504.7" style="stroke: #A80036; stroke-width: 1.0;"/><!--reverse link Enemy to Kuribo--><path d="M1255.53,721.7 C1177.47,729.154 1040.01,745.608 998,772 C979.88,783.384 966.249,803.766 957.659,819.781 " fill="none" id="Enemy&lt;-Kuribo" style="stroke: #A80036; stroke-width: 1.0;"/><polygon fill="none" points="1255.29,714.692,1275.85,719.835,1256.57,728.634,1255.29,714.692" style="stroke: #A80036; stroke-width: 1.0;"/><!--reverse link Enemy to Nokonoko--><path d="M1256.19,724.27 C1216.23,731.53 1162.11,745.571 1121,772 C1102,784.216 1085.65,804.098 1074.67,819.72 " fill="none" id="Enemy&lt;-Nokonoko" style="stroke: #A80036; stroke-width: 1.0;"/><polygon fill="none" points="1255.05,717.362,1275.93,721.022,1257.33,731.177,1255.05,717.362" style="stroke: #A80036; stroke-width: 1.0;"/><!--reverse link Square to Player--><path d="M1323.79,351.489 C1331.87,372.193 1344.85,395.308 1365,408 C1398.31,428.989 1506.5,398.965 1542,416 C1608.15,447.746 1608.29,480.331 1651,540 C1721.43,638.41 1787.76,767.452 1813.61,819.618 " fill="none" id="Square&lt;-Player" style="stroke: #A80036; stroke-width: 1.0;"/><polygon fill="none" points="1317.13,353.62,1317.38,332.432,1330.39,349.154,1317.13,353.62" style="stroke: #A80036; stroke-width: 1.0;"/><!--reverse link RenderObj to Player--><path d="M1543.53,508.212 C1560.87,516.465 1578.75,527.011 1593,540 C1678.92,618.289 1632.08,698.338 1728,764 C1745.12,775.722 1756.42,760.976 1774,772 C1792.13,783.368 1805.76,803.752 1814.35,819.772 " fill="none" id="RenderObj&lt;-Player" style="stroke: #A80036; stroke-width: 1.0;"/><polygon fill="none" points="1540.63,514.585,1525.11,500.15,1546.24,501.76,1540.63,514.585" style="stroke: #A80036; stroke-width: 1.0;"/><!--reverse link IMoveObj to Player--><path d="M696.408,628.911 C806.815,664.192 1049.25,736.55 1260,764 C1288.32,767.689 1748.69,758.768 1774,772 C1793.37,782.125 1807.08,803.325 1815.38,819.936 " fill="none" id="IMoveObj&lt;-Player" style="stroke: #A80036; stroke-width: 1.0; stroke-dasharray: 7.0,7.0;"/><polygon fill="none" points="694.254,635.571,677.366,622.773,698.549,622.246,694.254,635.571" style="stroke: #A80036; stroke-width: 1.0;"/><!--reverse link Square to TextChar--><path d="M1323.53,351.29 C1331.56,372.144 1344.59,395.457 1365,408 C1398.24,428.424 1680.43,399.99 1716,416 C1897.63,497.744 1999.89,743.363 2027.98,819.941 " fill="none" id="Square&lt;-TextChar" style="stroke: #A80036; stroke-width: 1.0;"/><polygon fill="none" points="1316.82,353.303,1317.18,332.116,1330.11,348.902,1316.82,353.303" style="stroke: #A80036; stroke-width: 1.0;"/><!--reverse link RenderObj to TextChar--><path d="M1545.41,488.296 C1601.28,493.448 1681.78,506.585 1744,540 C1875.62,610.689 1983.29,761.794 2021.28,819.729 " fill="none" id="RenderObj&lt;-TextChar" style="stroke: #A80036; stroke-width: 1.0;"/><polygon fill="none" points="1544.67,495.26,1525.29,486.687,1545.78,481.304,1544.67,495.26" style="stroke: #A80036; stroke-width: 1.0;"/><!--reverse link IGameScene to GameOverScene--><path d="M532.703,649.422 C562.78,698.639 612.559,780.096 636.823,819.802 " fill="none" id="IGameScene&lt;-GameOverScene" style="stroke: #A80036; stroke-width: 1.0; stroke-dasharray: 7.0,7.0;"/><polygon fill="none" points="526.69,653.008,522.234,632.292,538.636,645.708,526.69,653.008" style="stroke: #A80036; stroke-width: 1.0;"/><!--reverse link IGameScene to ParameterScene--><path d="M436.904,635.64 C398.634,650.763 351.001,670.861 310,692 C250.037,722.915 235.092,731.685 181,772 C161.197,786.759 140.378,805.346 124.943,819.8 " fill="none" id="IGameScene&lt;-ParameterScene" style="stroke: #A80036; stroke-width: 1.0; stroke-dasharray: 7.0,7.0;"/><polygon fill="none" points="434.524,629.055,455.7,628.312,439.608,642.099,434.524,629.055" style="stroke: #A80036; stroke-width: 1.0;"/><!--reverse link IGameScene to PlayScene--><path d="M460.273,644.168 C418.354,675.868 356.508,724.642 307,772 C291.281,787.036 275.022,805.443 262.96,819.747 " fill="none" id="IGameScene&lt;-PlayScene" style="stroke: #A80036; stroke-width: 1.0; stroke-dasharray: 7.0,7.0;"/><polygon fill="none" points="456.18,638.488,476.38,632.086,464.581,649.687,456.18,638.488" style="stroke: #A80036; stroke-width: 1.0;"/><!--reverse link IGameScene to ResultScene--><path d="M485.014,649.748 C457.232,698.998 411.435,780.183 389.086,819.802 " fill="none" id="IGameScene&lt;-ResultScene" style="stroke: #A80036; stroke-width: 1.0; stroke-dasharray: 7.0,7.0;"/><polygon fill="none" points="478.937,646.273,494.861,632.292,491.131,653.151,478.937,646.273" style="stroke: #A80036; stroke-width: 1.0;"/><!--reverse link IGameScene to TitleScene--><path d="M508,652.387 C508,701.853 508,780.883 508,819.802 " fill="none" id="IGameScene&lt;-TitleScene" style="stroke: #A80036; stroke-width: 1.0; stroke-dasharray: 7.0,7.0;"/><polygon fill="none" points="501,652.292,508,632.292,515,652.292,501,652.292" style="stroke: #A80036; stroke-width: 1.0;"/><!--reverse link ParameterScene to Timer--><path d="M101,881.281 C101,902.628 101,928.998 101,947.609 " fill="none" id="ParameterScene&lt;-Timer" style="stroke: #A80036; stroke-width: 1.0;"/><polygon fill="#A80036" points="101,868.11,97,874.11,101,880.11,105,874.11,101,868.11" style="stroke: #A80036; stroke-width: 1.0;"/><!--reverse link PlayScene to Stage--><path d="M244,881.281 C244,902.628 244,928.998 244,947.609 " fill="none" id="PlayScene&lt;-Stage" style="stroke: #A80036; stroke-width: 1.0;"/><polygon fill="#A80036" points="244,868.11,240,874.11,244,880.11,248,874.11,244,868.11" style="stroke: #A80036; stroke-width: 1.0;"/><!--reverse link GameOverScene to Camera--><path d="M614.923,876.788 C589.917,898.821 557.177,927.669 534.546,947.609 " fill="none" id="GameOverScene&lt;-Camera" style="stroke: #A80036; stroke-width: 1.0;"/><polygon fill="#A80036" points="624.772,868.11,617.6258,869.0753,615.7683,876.043,622.9145,875.0778,624.772,868.11" style="stroke: #A80036; stroke-width: 1.0;"/><!--reverse link PlayScene to Camera--><path d="M282.183,875.994 C290.13,881.717 298.638,887.348 307,892 C360.57,921.805 427.701,945.763 469.22,959.185 " fill="none" id="PlayScene&lt;-Camera" style="stroke: #A80036; stroke-width: 1.0;"/><polygon fill="#A80036" points="271.761,868.215,274.1759,875.0097,281.3768,875.3939,278.9619,868.5992,271.761,868.215" style="stroke: #A80036; stroke-width: 1.0;"/><!--reverse link TitleScene to Camera--><path d="M508,881.281 C508,902.628 508,928.998 508,947.609 " fill="none" id="TitleScene&lt;-Camera" style="stroke: #A80036; stroke-width: 1.0;"/><polygon fill="#A80036" points="508,868.11,504,874.11,508,880.11,512,874.11,508,868.11" style="stroke: #A80036; stroke-width: 1.0;"/><!--reverse link Nokonoko to Animation--><path d="M1093.6,876.361 C1101.99,882.575 1111.36,888.311 1121,892 C1310.51,964.542 1958.4,970.719 2133.23,971.045 " fill="none" id="Nokonoko&lt;-Animation" style="stroke: #A80036; stroke-width: 1.0;"/><polygon fill="#A80036" points="1083.2,868.048,1085.3907,874.9183,1092.5751,875.5385,1090.3844,868.6683,1083.2,868.048" style="stroke: #A80036; stroke-width: 1.0;"/><!--reverse link Kuribo to Animation--><path d="M975.77,877.59 C982.476,883.336 990.014,888.569 998,892 C1103.91,937.497 1932.58,963.998 2133.32,969.79 " fill="none" id="Kuribo&lt;-Animation" style="stroke: #A80036; stroke-width: 1.0;"/><polygon fill="#A80036" points="965.969,868.323,967.5805,875.3517,974.6883,876.5676,973.0769,869.5389,965.969,868.323" style="stroke: #A80036; stroke-width: 1.0;"/><!--reverse link Player to Animation--><path d="M1852.84,877.044 C1859.76,883.066 1867.62,888.549 1876,892 C1920.62,910.378 2048,882.582 2093,900 C2118.64,909.925 2142.02,931.149 2157.56,947.821 " fill="none" id="Player&lt;-Animation" style="stroke: #A80036; stroke-width: 1.0;"/><polygon fill="#A80036" points="1843.42,868.008,1844.9806,875.0482,1852.0795,876.3154,1850.5189,869.2752,1843.42,868.008" style="stroke: #A80036; stroke-width: 1.0;"/><!--reverse link Singleton to Dx11--><path d="M1545.33,312.667 C1723.74,321.277 2110.92,347.489 2223,416 C2239.73,426.226 2252.08,444.897 2259.91,459.936 " fill="none" id="Singleton&lt;-Dx11" style="stroke: #A80036; stroke-width: 1.0;"/><polygon fill="none" points="1544.8,319.651,1525.15,311.726,1545.46,305.666,1544.8,319.651" style="stroke: #A80036; stroke-width: 1.0;"/><!--reverse link Singleton to GameManager--><path d="M1545.79,311.076 C1668.89,316.925 1891.88,338.42 2064,416 C2087.3,426.502 2109.72,444.951 2125.53,459.835 " fill="none" id="Singleton&lt;-GameManager" style="stroke: #A80036; stroke-width: 1.0;"/><polygon fill="none" points="1545.15,318.055,1525.46,310.21,1545.74,304.067,1545.15,318.055" style="stroke: #A80036; stroke-width: 1.0;"/><!--reverse link Singleton to ScoreManager--><path d="M1545.23,313.28 C1738.37,323.466 2181.98,353.141 2318,416 C2339.55,425.959 2359.08,444.65 2372.5,459.765 " fill="none" id="Singleton&lt;-ScoreManager" style="stroke: #A80036; stroke-width: 1.0;"/><polygon fill="none" points="1544.75,320.264,1525.14,312.243,1545.48,306.283,1544.75,320.264" style="stroke: #A80036; stroke-width: 1.0;"/><!--reverse link Singleton to SoundData--><path d="M1545.37,309.215 C1785.68,311.06 2429.83,324.634 2619,416 C2639.13,425.724 2656.27,444.641 2667.73,459.901 " fill="none" id="Singleton&lt;-SoundData" style="stroke: #A80036; stroke-width: 1.0;"/><polygon fill="none" points="1545.03,316.213,1525.08,309.08,1545.12,302.213,1545.03,316.213" style="stroke: #A80036; stroke-width: 1.0;"/><!--reverse link Singleton to TextureData--><path d="M1545.31,312.465 C1761.09,321.646 2296.88,350.52 2463,416 C2488.01,425.858 2512.1,444.764 2528.89,459.985 " fill="none" id="Singleton&lt;-TextureData" style="stroke: #A80036; stroke-width: 1.0;"/><polygon fill="none" points="1544.84,319.452,1525.14,311.625,1545.42,305.464,1544.84,319.452" style="stroke: #A80036; stroke-width: 1.0;"/><!--reverse link Polyogn to Square--><path d="M1312,220.322 C1312,241.592 1312,266.36 1312,283.96 " fill="none" id="Polyogn&lt;-Square" style="stroke: #A80036; stroke-width: 1.0;"/><polygon fill="none" points="1305,220.241,1312,200.241,1319,220.241,1305,220.241" style="stroke: #A80036; stroke-width: 1.0;"/><!--link GameState to MoveObjState--><!--link GameState to Object--><!--link Math to Vector3--><!--link Math to Vector2--><!--
@startuml name

package Interface <<Folder>>
{
  class IGameScene
  class IMoveObj
}

package Abstruct <<Folder>>
{
  class Enemy
  RenderObj<|-down- -Enemy
  NotPlayer<|-down- -Enemy
  IMoveObj<|.down.Enemy

  class NotPlayer
  Square<|-down-NotPlayer

  class RenderObj

  class Singleton << (T,orchid) template<class T> >>
}

package Character <<Folder>>
{
  class BackGround
  RenderObj<|-down- -BackGround

  class Block
  NotPlayer<|-down-Block

  class Characters << (T,orchid) template<class T> >>
  RenderObj<|-down- -Characters

  class ClayPine
  Block<|-down- -ClayPine

  class Goal
  RenderObj<|-down- -Goal

  class Image
  Square<|-down-Image
  RenderObj<|-down- -Image

  class Kuribo
  Enemy<|-down-Kuribo

  enum NokonokoState
  class Nokonoko
  Enemy<|-down-Nokonoko

  class Player
  Square<|-down- -Player
  RenderObj<|-down- -Player
  IMoveObj<|.down..Player

  class TextChar
  Square<|-down-TextChar
  RenderObj<|-down-TextChar

  class TextCharcters
}

package Scene <<Folder>>
{
  class GameOverScene
  class ParameterScene
  class PlayScene
  class ResultScene
  class TitleScene
  IGameScene<|.down..GameOverScene 
  IGameScene<|.down.ParameterScene 
  IGameScene<|.down.PlayScene 
  IGameScene<|.down.ResultScene 
  IGameScene<|.down.TitleScene
}

class Timer
ParameterScene*-down-Timer

class Stage
PlayScene*-down-Stage

class Camera
GameOverScene*-down-Camera
PlayScene*-down-Camera
TitleScene*-down-Camera

package Flag.h <<Rectangle>>
{
  enum InputFlagCode
  class InputFlag
}

package Enum.h <<Rectangle>>
{
  enum GameState
  enum MoveObjState
  enum Object
}

package Animation.h <<Rectangle>>
{
  class AnimResource<< (S,#FF7700) struct >>
  class Animation
  Nokonoko*-down-Animation
  Kuribo*-down-Animation
  Player*-down-Animation
}

package Static <<Folder>>
{
  package Math.h <<Rectangle>>
  {
    package OriginalMeth <<Frame>>
    {
      class Math
      class Vector3<< (S,#FF7700) struct >>
      class Vector2<< (S,#FF7700) struct >>
    }
  }
}

package Manager <<Folder>>
{
  class Dx11
  class GameManager
  class ScoreManager
  Singleton<|-down-Dx11
  Singleton<|-down-GameManager
  Singleton<|-down-ScoreManager
}

package Data <<Folder>>
{
  class SoundData
  class TextureData
  Singleton<|-down-SoundData
  Singleton<|-down-TextureData
}

package Vertex.h <<Rectangle>>
{
  class vertex<< (S,#FF7700) struct >>

  class Polyogn

  class Square

  Polyogn <|-down- Square
}

@enduml

PlantUML version 1.2019.09(Tue Aug 27 01:19:51 GMT+09:00 2019)
(GPL source distribution)
Java Runtime: Java(TM) SE Runtime Environment
JVM: Java HotSpot(TM) 64-Bit Server VM
Java Version: 1.8.0_211-b12
Operating System: Windows 10
OS Version: 10.0
Default Encoding: MS932
Language: ja
Country: JP
--></g></svg>